<svg xmlns="http://www.w3.org/2000/svg" xmlns:xlink="http://www.w3.org/1999/xlink" viewBox="0 0 737.04 814.69"><defs><style>.a20108d3-1dbd-46be-a91c-30ffb04496c3{fill:#ffc7dc;}.fa54f428-c6c3-40e5-bb9c-1e74bc9fcfba{fill:url(#f4899041-fd9e-4250-a28a-9a288ae2df32);}.b50d31d3-36fc-48eb-b8b9-93ddeb33f65c{fill:#bb8cc5;}.e0dc1d4e-b7e0-45fe-b46f-821187dcddcd{fill:url(#fbc34799-01c7-42ea-92b6-b7830585a913);}.b3976679-6ce6-4e4c-ba5b-d491b267c991{fill:url(#ec4f029b-8839-497b-a5a7-209f0e2c0d47);}.bc819c42-83fd-449c-a416-70a148d671d8{fill:url(#feb55049-bcb6-4c37-9252-eaf5610652d0);}.ed483958-f901-442c-bae2-a8c3b6753b7b{fill:url(#bedc0a1f-8f5b-43bc-9345-ee690bd17e9a);}.b97cd1d3-6155-4cda-b56d-54751407931a{fill:url(#b09c22b8-e058-4f5f-a1dd-b1c42f21a48a);}.f93d6b80-b768-4f07-8207-2bea77333d96{fill:url(#ab7e0255-bc21-45de-87a7-362ecb117a50);}.a81a79c8-4da3-4732-8e97-d26983655396{fill:url(#e48ede59-8162-497f-bc6f-c30dde00bc8c);}.ece211da-3a7d-42c0-90d3-ab292185663b{fill:url(#b009fb1e-9904-45b8-99df-fa4269062705);}.ef2ec0d4-a98e-4114-b180-9e33b76c7b51{fill:url(#b5af0dcb-1450-4bb1-a926-253690c2dd0e);}.f195f8c0-5628-404e-a9df-ff0cb5e4cca9{fill:url(#b967aa36-cdff-4059-b08a-a37a74444a13);}.b252210a-3d49-41f6-8000-de914bc07b18{fill:url(#a69598cd-d3f6-402d-8da2-2c529f65573f);}.b6692ba8-ae87-4c1e-b044-a9fabb0b0b1a{fill:url(#b668fb2a-d9b6-4e1d-bb93-5e2e13678b18);}.efe1a054-8706-4bd3-a82f-7df7a0f53455{fill:url(#b1cc809e-f5e2-4179-b30a-e27d5c34e556);}.b0b8e345-b187-490a-b9e6-6194300c3b43{fill:url(#ae856365-6258-4e11-aed8-cc5b084692d0);}.a800e077-969d-46d5-8ee1-2e99269d8ac6{fill:url(#f8a564f7-5b3f-4edd-af85-a41bf6f9a6be);}.e6be67e3-040f-4db5-b60d-c1e6b717997f{fill:url(#e88bc824-fef5-4492-a7c4-57c2f431f758);}.e3c6b82a-996e-4fed-b647-9ea6350e7589{fill:url(#bd1791da-2643-4442-aae0-bec58ae1a3bd);}.a0f8f78c-da71-4917-9235-1fe9f76f0ba1{fill:url(#e4232f84-345a-4d04-8cee-179f0d5dbdff);}.b6af694a-3c77-44f0-bf08-e2350f87d40c{fill:url(#bf8ac7c9-be9b-4c62-87f9-b9ce2bf69d45);}.b65e4946-f181-4c7c-adc9-dfe8a3a81e28{fill:url(#a742be06-d019-42c7-b189-92cef1a8ce98);}.ad0fe337-b1c5-4dec-a752-cebfe62bce0b{fill:url(#a7a0935f-725f-4a1e-be5f-bca31f77c68a);}.b0162c55-31f3-45ee-98f7-d9404eefcef8{fill:url(#e5ce56d9-cdec-4d3d-a916-19cd5127db2c);}.afc3a3f6-e466-42c8-a072-d0ae0d0f3c1b{fill:url(#f1bb80db-5225-4638-a315-3f340a9ac073);}.a1b37cac-e550-4449-a16a-9ed2975dd73b{fill:url(#b48d82d7-2ffd-45b3-89c2-78151325581b);}.b687df8a-8f64-4688-87db-e6da228b86b3{fill:url(#be8dae60-71a7-4a52-afca-afde3d23a1c7);}.a5eea979-6355-4605-9df6-f5cd1467f2d3{fill:url(#bc6b4aeb-ed5f-400e-bc3f-f7712eedd1a9);}.bcdfb461-fbac-44c7-9240-9d6421854f81{fill:url(#abd26a73-30a7-43b3-840a-9fb96b2129a7);}.be9f78de-9fe0-47fa-bb0f-1c91015afb4a{fill:url(#aeab763a-2659-4eda-93f1-5a817951a0d6);}.b4a1f762-49bd-4d37-9e6f-7994d5bc4ea1{fill:url(#ad7645cf-c046-4f9c-a2df-047aba837f51);}.f186c7df-6be6-45c1-8242-1857d1f26722{fill:url(#f13b6180-243e-4e64-bace-4f3cba0ec971);}.bcf4efc1-3e4a-409b-b6e7-e76b1a02503a{fill:url(#a9b5d778-6d17-4e02-8c3b-2a91b397ea88);}.e0dec9a7-e0d4-4751-8ecf-26a9a20529d1{fill:url(#b5060681-922f-458e-b4f9-b08d8cb66ec0);}.e0579900-64b7-46f0-80d3-e35d18764baa{fill:url(#ab99b3bf-a641-404b-ab9c-3197bb2d3de6);}.ad0fbcc6-d8d6-4b42-8978-fe9c4dad7b8f{fill:url(#a7d9de4d-8014-4d12-a24b-f43506fb348d);}.bf2bc499-bfc0-409c-8c33-9bb25984fcf1{fill:url(#ac091e45-50b4-42d0-92fb-fa7aa4a6f752);}.e6b02f0a-4c48-44db-b714-0da37fa8fcbb{fill:url(#ff9fb167-b16e-429a-a526-2ae924364ea4);}.fffe3a2f-2ac7-4edf-97ba-1bc479582c96{fill:url(#a357820e-0aad-46ce-a4eb-825c00f03877);}.a7f575a0-6c4c-4973-b1df-6bd22433bfd3{fill:url(#e51b8d64-df9f-4249-8b00-6203806f0555);}.bcd28b79-955c-4b87-ac1c-65bc2503eaaf{fill:#ffbbd4;}.f07f8f44-b25a-46af-b842-ff19af83039c{fill:#f4a4c4;}.b3d2d23d-09e7-4c9d-9954-7978e359a0bb{fill:#c88ed6;}.ba58b66a-cfad-4a76-afad-b8fe75415033{fill:#eda9c5;}.b598ec73-1d6d-4ae6-83e6-41cb50f31129{fill:#2b2929;}.f1fe4f8f-193b-4e00-9b36-3efd3e2ccb50{fill:#0e131e;}.e713e2cc-f716-45a0-9eca-228dcde74417{fill:#4464ad;}.e25ceb48-88c8-4320-8357-3d51e0026abe{fill:#383636;}.b9d11ed3-6eb8-4d63-b2e5-7368e08edb9f{fill:#344e82;}.af34650f-9946-411a-adf4-6afb18b014ee{fill:#303030;}.af00c599-ee45-4b9b-a033-f0a050198b35{fill:#594f4f;}.bd0e64f2-011e-4e07-8d22-b76f671505ea{fill:#261414;}.a5033bb3-8626-4bd4-b65a-058be05689f7,.a660f223-652d-403d-8311-134a8a98d46d,.b91b07ce-03df-449b-a5cc-ba496239d30a,.f22cdc0b-5525-4d48-8353-28e63a1bba91{fill:none;stroke-miterlimit:10;}.f22cdc0b-5525-4d48-8353-28e63a1bba91{stroke:#000;stroke-width:4px;}.a660f223-652d-403d-8311-134a8a98d46d{stroke:#594f4f;}.b91b07ce-03df-449b-a5cc-ba496239d30a{stroke:#443d3d;}.ba43604e-52b6-4717-bf26-cda10866b764{fill:#443d3d;}.a1cfa809-17c8-4009-9b6f-17194569a622{fill:#726262;}.f8889e01-a5c6-4594-9791-c3f25dce8a00{fill:#282828;}.a5033bb3-8626-4bd4-b65a-058be05689f7{stroke:#282828;}.a3b8ad9d-3bdb-4b87-be5c-e8b1c6c2b4e4{fill:#302f2f;}.b20e145f-1ad8-4269-9e9f-064402768928{fill:#758dbc;}.b9535522-ca32-457a-b5d1-a400cb880cc5{fill:#3d3a38;}.abfa549e-dbd9-41c2-b47d-0c059449cf20{fill:#232120;}.bc406448-b174-4eea-92d1-23bcf4faf49c{fill:#564b4b;}.e4a01195-f8f0-4bab-b742-23e2cc56f11c{fill:#3d3535;}.ef0684f7-c78f-4f7a-a60a-413351f79429{fill:#fff;}.b7e467e9-bf8c-4d19-bed3-72f4bfc2e2ef{fill:#022a51;}.e860e465-2ddf-438f-875d-253c2fba44bf{fill:#5881a8;}.bb312942-8ec0-4917-94bd-049d165fd97d{fill:#bcdffd;}.b5de5f09-392f-45b0-a8c9-c5a184e7b561{fill:#054c7c;}.bcd40831-b3aa-42ea-b511-25df9cf03196{fill:#89b6db;}</style><linearGradient id="f4899041-fd9e-4250-a28a-9a288ae2df32" x1="635.83" y1="398.46" x2="702.04" y2="283.77" gradientUnits="userSpaceOnUse"><stop offset="0.16" stop-color="#ffbbd4"/><stop offset="0.28" stop-color="#fcb5d3"/><stop offset="1" stop-color="#ed96cb"/></linearGradient><linearGradient id="fbc34799-01c7-42ea-92b6-b7830585a913" x1="498.18" y1="431.74" x2="498.19" y2="431.74" gradientUnits="userSpaceOnUse"><stop offset="0.4" stop-color="#ffbbd4"/><stop offset="0.54" stop-color="#f6b5d2"/><stop offset="0.75" stop-color="#dea4cd"/><stop offset="1" stop-color="#bb8cc5"/></linearGradient><linearGradient id="ec4f029b-8839-497b-a5a7-209f0e2c0d47" x1="499.25" y1="434.24" x2="499.31" y2="434.2" xlink:href="#fbc34799-01c7-42ea-92b6-b7830585a913"/><linearGradient id="feb55049-bcb6-4c37-9252-eaf5610652d0" x1="500.08" y1="436.62" x2="500.48" y2="436.38" xlink:href="#fbc34799-01c7-42ea-92b6-b7830585a913"/><linearGradient id="bedc0a1f-8f5b-43bc-9345-ee690bd17e9a" x1="498.56" y1="432.9" x2="498.78" y2="432.77" xlink:href="#fbc34799-01c7-42ea-92b6-b7830585a913"/><linearGradient id="b09c22b8-e058-4f5f-a1dd-b1c42f21a48a" x1="504.43" y1="446.18" x2="504.62" y2="446.07" xlink:href="#fbc34799-01c7-42ea-92b6-b7830585a913"/><linearGradient id="ab7e0255-bc21-45de-87a7-362ecb117a50" x1="503.82" y1="444.69" x2="503.93" y2="444.62" xlink:href="#fbc34799-01c7-42ea-92b6-b7830585a913"/><linearGradient id="e48ede59-8162-497f-bc6f-c30dde00bc8c" x1="496.7" y1="429.17" x2="497.26" y2="428.85" xlink:href="#fbc34799-01c7-42ea-92b6-b7830585a913"/><linearGradient id="b009fb1e-9904-45b8-99df-fa4269062705" x1="501.78" y1="440.45" x2="502.17" y2="440.23" xlink:href="#fbc34799-01c7-42ea-92b6-b7830585a913"/><linearGradient id="b5af0dcb-1450-4bb1-a926-253690c2dd0e" x1="503.12" y1="443.22" x2="503.31" y2="443.11" xlink:href="#fbc34799-01c7-42ea-92b6-b7830585a913"/><linearGradient id="b967aa36-cdff-4059-b08a-a37a74444a13" x1="505.14" y1="447.7" x2="505.26" y2="447.63" xlink:href="#fbc34799-01c7-42ea-92b6-b7830585a913"/><linearGradient id="a69598cd-d3f6-402d-8da2-2c529f65573f" x1="493.25" y1="420.59" x2="493.29" y2="420.57" xlink:href="#fbc34799-01c7-42ea-92b6-b7830585a913"/><linearGradient id="b668fb2a-d9b6-4e1d-bb93-5e2e13678b18" x1="493.1" y1="420.25" x2="493.13" y2="420.23" xlink:href="#fbc34799-01c7-42ea-92b6-b7830585a913"/><linearGradient id="b1cc809e-f5e2-4179-b30a-e27d5c34e556" x1="492.51" y1="419.17" x2="492.75" y2="419.03" xlink:href="#fbc34799-01c7-42ea-92b6-b7830585a913"/><linearGradient id="ae856365-6258-4e11-aed8-cc5b084692d0" x1="493.42" y1="420.99" x2="493.46" y2="420.96" xlink:href="#fbc34799-01c7-42ea-92b6-b7830585a913"/><linearGradient id="f8a564f7-5b3f-4edd-af85-a41bf6f9a6be" x1="493.66" y1="421.58" x2="493.74" y2="421.54" xlink:href="#fbc34799-01c7-42ea-92b6-b7830585a913"/><linearGradient id="e88bc824-fef5-4492-a7c4-57c2f431f758" x1="494.85" y1="424.61" x2="495.16" y2="424.43" xlink:href="#fbc34799-01c7-42ea-92b6-b7830585a913"/><linearGradient id="bd1791da-2643-4442-aae0-bec58ae1a3bd" x1="494.12" y1="422.62" x2="494.2" y2="422.58" xlink:href="#fbc34799-01c7-42ea-92b6-b7830585a913"/><linearGradient id="e4232f84-345a-4d04-8cee-179f0d5dbdff" x1="495.72" y1="426.18" x2="495.75" y2="426.17" xlink:href="#fbc34799-01c7-42ea-92b6-b7830585a913"/><linearGradient id="bf8ac7c9-be9b-4c62-87f9-b9ce2bf69d45" x1="493.92" y1="422.09" x2="493.94" y2="422.08" xlink:href="#fbc34799-01c7-42ea-92b6-b7830585a913"/><linearGradient id="a742be06-d019-42c7-b189-92cef1a8ce98" x1="515.78" y1="471.69" x2="515.79" y2="471.68" xlink:href="#fbc34799-01c7-42ea-92b6-b7830585a913"/><linearGradient id="a7a0935f-725f-4a1e-be5f-bca31f77c68a" x1="515.58" y1="471.33" x2="515.65" y2="471.28" xlink:href="#fbc34799-01c7-42ea-92b6-b7830585a913"/><linearGradient id="e5ce56d9-cdec-4d3d-a916-19cd5127db2c" x1="514.46" y1="469.01" x2="514.69" y2="468.88" xlink:href="#fbc34799-01c7-42ea-92b6-b7830585a913"/><linearGradient id="f1bb80db-5225-4638-a315-3f340a9ac073" x1="515.84" y1="471.85" x2="515.86" y2="471.83" xlink:href="#fbc34799-01c7-42ea-92b6-b7830585a913"/><linearGradient id="b48d82d7-2ffd-45b3-89c2-78151325581b" x1="515.22" y1="470.54" x2="515.31" y2="470.49" xlink:href="#fbc34799-01c7-42ea-92b6-b7830585a913"/><linearGradient id="be8dae60-71a7-4a52-afca-afde3d23a1c7" x1="516.09" y1="472.41" x2="516.11" y2="472.4" xlink:href="#fbc34799-01c7-42ea-92b6-b7830585a913"/><linearGradient id="bc6b4aeb-ed5f-400e-bc3f-f7712eedd1a9" x1="721.43" y1="456" x2="570.18" y2="194.04" xlink:href="#fbc34799-01c7-42ea-92b6-b7830585a913"/><linearGradient id="abd26a73-30a7-43b3-840a-9fb96b2129a7" x1="516.02" y1="472.25" x2="516.04" y2="472.24" xlink:href="#fbc34799-01c7-42ea-92b6-b7830585a913"/><linearGradient id="aeab763a-2659-4eda-93f1-5a817951a0d6" x1="515.94" y1="472.08" x2="515.97" y2="472.07" xlink:href="#fbc34799-01c7-42ea-92b6-b7830585a913"/><linearGradient id="ad7645cf-c046-4f9c-a2df-047aba837f51" x1="511.5" y1="462.05" x2="511.56" y2="462.01" xlink:href="#fbc34799-01c7-42ea-92b6-b7830585a913"/><linearGradient id="f13b6180-243e-4e64-bace-4f3cba0ec971" x1="509.88" y1="458.89" x2="510.3" y2="458.64" xlink:href="#fbc34799-01c7-42ea-92b6-b7830585a913"/><linearGradient id="a9b5d778-6d17-4e02-8c3b-2a91b397ea88" x1="509" y1="456.38" x2="509.07" y2="456.34" xlink:href="#fbc34799-01c7-42ea-92b6-b7830585a913"/><linearGradient id="b5060681-922f-458e-b4f9-b08d8cb66ec0" x1="508.76" y1="455.81" x2="508.8" y2="455.78" xlink:href="#fbc34799-01c7-42ea-92b6-b7830585a913"/><linearGradient id="ab99b3bf-a641-404b-ab9c-3197bb2d3de6" x1="507.93" y1="454.26" x2="508.21" y2="454.1" xlink:href="#fbc34799-01c7-42ea-92b6-b7830585a913"/><linearGradient id="a7d9de4d-8014-4d12-a24b-f43506fb348d" x1="506.23" y1="450.67" x2="506.7" y2="450.4" xlink:href="#fbc34799-01c7-42ea-92b6-b7830585a913"/><linearGradient id="ac091e45-50b4-42d0-92fb-fa7aa4a6f752" x1="511.16" y1="461.32" x2="511.25" y2="461.26" xlink:href="#fbc34799-01c7-42ea-92b6-b7830585a913"/><linearGradient id="ff9fb167-b16e-429a-a526-2ae924364ea4" x1="511.81" y1="462.79" x2="511.9" y2="462.73" xlink:href="#fbc34799-01c7-42ea-92b6-b7830585a913"/><linearGradient id="a357820e-0aad-46ce-a4eb-825c00f03877" x1="512.73" y1="465.34" x2="513.14" y2="465.1" xlink:href="#fbc34799-01c7-42ea-92b6-b7830585a913"/><linearGradient id="e51b8d64-df9f-4249-8b00-6203806f0555" x1="513.92" y1="467.55" x2="513.98" y2="467.51" xlink:href="#fbc34799-01c7-42ea-92b6-b7830585a913"/></defs><g id="f5a47535-7af0-47e6-8d71-dd884bab1b37" data-name="Sombras"><path class="a20108d3-1dbd-46be-a91c-30ffb04496c3" d="M507.57,275S478,253,492,400c0,0-29.53,46.22-3.76,89.61S646,640,655,637s112,47,209-191c0,0,183.75-24.19-17.12-212.6C846.88,233.4,470.15,79,507.57,275Z" transform="translate(-380 -4.81)"/><path class="a20108d3-1dbd-46be-a91c-30ffb04496c3" d="M763.5,621.31l108-166.22L906,557s-53.5,79.5-126,86h0S763.5,634.13,763.5,621.31Z" transform="translate(-380 -4.81)"/><path class="fa54f428-c6c3-40e5-bb9c-1e74bc9fcfba" d="M750,326s-26-44.1-67-43-95,73-95,73l6,15,6,7s17-7,18-1,10.54,0,10.54,0S625,350.78,675,334C691.65,328.41,719.41,328.34,750,326Z" transform="translate(-380 -4.81)"/><path class="b50d31d3-36fc-48eb-b8b9-93ddeb33f65c" d="M505,432s8-44.19,48-40.6S580,482,580,482s37,1,34,39,12.82,37.87,12.82,37.87l44.45,10.4S655.88,579.89,658,597c.8,6.41,10.73,30,18,35,5.78,3.94,16.35.17,22,1,34,5-6,6-6,6H676l-18-4s-79.55-46.85-82.27-59.43S499,438,505,432" transform="translate(-380 -4.81)"/><path class="e0dc1d4e-b7e0-45fe-b46f-821187dcddcd" d="M498.18,431.72l0,0Z" transform="translate(-380 -4.81)"/><path class="b3976679-6ce6-4e4c-ba5b-d491b267c991" d="M499.14,433.91l.28.62C499.32,434.33,499.23,434.12,499.14,433.91Z" transform="translate(-380 -4.81)"/><path class="bc819c42-83fd-449c-a416-70a148d671d8" d="M499.42,434.53c.59,1.36,1.17,2.67,1.73,3.94C500.55,437.12,500,435.8,499.42,434.53Z" transform="translate(-380 -4.81)"/><path class="ed483958-f901-442c-bae2-a8c3b6753b7b" d="M498.2,431.77l.94,2.14Z" transform="translate(-380 -4.81)"/><path class="b97cd1d3-6155-4cda-b56d-54751407931a" d="M504.11,445.19c.28.64.55,1.26.82,1.86Z" transform="translate(-380 -4.81)"/><path class="f93d6b80-b768-4f07-8207-2bea77333d96" d="M503.64,444.11c.15.36.31.72.47,1.08Z" transform="translate(-380 -4.81)"/><path class="a81a79c8-4da3-4732-8e97-d26983655396" d="M495.79,426.3q1.23,2.81,2.39,5.42C497.29,429.72,496.49,427.89,495.79,426.3Z" transform="translate(-380 -4.81)"/><path class="ece211da-3a7d-42c0-90d3-ab292185663b" d="M501.15,438.47l1.65,3.74Z" transform="translate(-380 -4.81)"/><path class="ef2ec0d4-a98e-4114-b180-9e33b76c7b51" d="M502.8,442.21c.28.65.56,1.28.84,1.9Z" transform="translate(-380 -4.81)"/><path class="f195f8c0-5628-404e-a9df-ff0cb5e4cca9" d="M504.93,447.05l.54,1.23C505.29,447.87,505.11,447.47,504.93,447.05Z" transform="translate(-380 -4.81)"/><path class="b252210a-3d49-41f6-8000-de914bc07b18" d="M493.18,420.37l.18.41Z" transform="translate(-380 -4.81)"/><path class="b6692ba8-ae87-4c1e-b044-a9fabb0b0b1a" d="M493.06,420.11l.12.26Z" transform="translate(-380 -4.81)"/><path class="efe1a054-8706-4bd3-a82f-7df7a0f53455" d="M492.21,418.1a6.7,6.7,0,0,0,.85,2C492.76,419.43,492.5,418.77,492.21,418.1Z" transform="translate(-380 -4.81)"/><path class="b0b8e345-b187-490a-b9e6-6194300c3b43" d="M493.36,420.78l.17.38Z" transform="translate(-380 -4.81)"/><path class="a800e077-969d-46d5-8ee1-2e99269d8ac6" d="M493.53,421.16l.34.8C493.76,421.69,493.64,421.43,493.53,421.16Z" transform="translate(-380 -4.81)"/><path class="e6be67e3-040f-4db5-b60d-c1e6b717997f" d="M494.33,423l1.35,3.07C495.16,424.89,494.71,423.85,494.33,423Z" transform="translate(-380 -4.81)"/><path class="e3c6b82a-996e-4fed-b647-9ea6350e7589" d="M494,422.21c.1.24.22.5.34.78Z" transform="translate(-380 -4.81)"/><path class="a0f8f78c-da71-4917-9235-1fe9f76f0ba1" d="M495.68,426.06l.11.24Z" transform="translate(-380 -4.81)"/><path class="b6af694a-3c77-44f0-bf08-e2350f87d40c" d="M493.87,422l.12.25Z" transform="translate(-380 -4.81)"/><path class="b65e4946-f181-4c7c-adc9-dfe8a3a81e28" d="M515.77,471.66l0,.06Z" transform="translate(-380 -4.81)"/><path class="ad0fe337-b1c5-4dec-a752-cebfe62bce0b" d="M515.46,471l.31.71Z" transform="translate(-380 -4.81)"/><path class="b0162c55-31f3-45ee-98f7-d9404eefcef8" d="M514.08,467.81l1,2.27Z" transform="translate(-380 -4.81)"/><path class="afc3a3f6-e466-42c8-a072-d0ae0d0f3c1b" d="M515.8,471.72l.11.24Z" transform="translate(-380 -4.81)"/><path class="a1b37cac-e550-4449-a16a-9ed2975dd73b" d="M515.08,470.08l.38.87Z" transform="translate(-380 -4.81)"/><path class="b687df8a-8f64-4688-87db-e6da228b86b3" d="M516.06,472.31c.11.24.11.26,0,0Z" transform="translate(-380 -4.81)"/><path class="a5eea979-6355-4605-9df6-f5cd1467f2d3" d="M860,361c-2.66-6.28-12-63.1-49-99-41.81-40.51-112.83-60.53-134-67-13.84-4.23-29.76-16.6-30-4,0,0-25-18-69,2-43.75,19.89-135.8,108.2-85.79,225.1-1.37-5.13-.52-19.66,40.79-39.1,0,0,12,2.4,16,12,0,0,23.86-2.23,27.15,40.95-.1.66-.15,1.05-.15,1.05a87.12,87.12,0,0,0-.19,24.56c-.63,5.85-2.08,26.36,8.19,29.44,20,6,21.32,5.85,20,9,0,0,10,10,10,25h0c.1-.57,2.59-15.14.32-23a11.12,11.12,0,0,0-.51-1.41,6.1,6.1,0,0,1,4-.59s2.81-4.43,0-6.21,3.39-.4.19-1.79c.15-.24,2-3,2-3s14-3,23.94-4,5.06-21-22.45-16.77S596,463,594.71,456.09s11.29-8.09,12.93-10S609,440,604,434.62,586,437,586,437c-.54-2.17-1-4.14-1.31-5.93,1.08-6.33,2.66-12.77,5.31-18.07,0,0,0-16-3.73-19.55a0,0,0,0,1,0-.07c1.07-.43,18.83-7.79,16.81-15.47-2.09-7.91-19.67-24.54-10.38-33.23S685,284,685,284s51.35-7.34,75,37c16,30,12,2,30,10,12.29,5.46,15,13.85,33,15C842.92,347.27,862,365.78,860,361ZM646,186c-1,.19-2.32,3.87-3,4C644,189.81,645.49,186.1,646,186Zm-5.86,14.66Zm2.43-.46-.29.06Zm-1.59.3-.14,0Zm-.3.06-.24,0Z" transform="translate(-380 -4.81)"/><path class="bcdfb461-fbac-44c7-9240-9d6421854f81" d="M516,472.18l.06.13Z" transform="translate(-380 -4.81)"/><path class="be9f78de-9fe0-47fa-bb0f-1c91015afb4a" d="M515.91,472l.09.22Z" transform="translate(-380 -4.81)"/><path class="b4a1f762-49bd-4d37-9e6f-7994d5bc4ea1" d="M511.4,461.74l.26.58Z" transform="translate(-380 -4.81)"/><path class="f186c7df-6be6-45c1-8242-1857d1f26722" d="M509.18,456.7c.66,1.5,1.27,2.87,1.82,4.14Z" transform="translate(-380 -4.81)"/><path class="bcf4efc1-3e4a-409b-b6e7-e76b1a02503a" d="M508.88,456l.3.68Z" transform="translate(-380 -4.81)"/><path class="e0dec9a7-e0d4-4751-8ecf-26a9a20529d1" d="M508.68,455.57l.2.45Z" transform="translate(-380 -4.81)"/><path class="e0579900-64b7-46f0-80d3-e35d18764baa" d="M507.46,452.8l1.22,2.77C508.29,454.69,507.89,453.76,507.46,452.8Z" transform="translate(-380 -4.81)"/><path class="ad0fbcc6-d8d6-4b42-8978-fe9c4dad7b8f" d="M505.47,448.28l2,4.52Z" transform="translate(-380 -4.81)"/><path class="bf2bc499-bfc0-409c-8c33-9bb25984fcf1" d="M511,460.84l.4.9C511.27,461.45,511.14,461.14,511,460.84Z" transform="translate(-380 -4.81)"/><path class="e6b02f0a-4c48-44db-b714-0da37fa8fcbb" d="M511.66,462.32c.13.3.26.59.38.88Z" transform="translate(-380 -4.81)"/><path class="fffe3a2f-2ac7-4edf-97ba-1bc479582c96" d="M512,463.2l1.79,4.05Z" transform="translate(-380 -4.81)"/><path class="a7f575a0-6c4c-4973-b1df-6bd22433bfd3" d="M513.83,467.25l.25.56C514,467.63,513.91,467.44,513.83,467.25Z" transform="translate(-380 -4.81)"/><path class="bcd28b79-955c-4b87-ac1c-65bc2503eaaf" d="M645.94,402s34.53,0,64.29-17.5,28.89-45.1,28.89-45.1l15-8.44s-7.51,1.85-17.83,44.44-11.62,69.67-17,78.64S705,476,692.5,476.51s-15.5-.17-30-4.34c0,0-.5-25.17-4.5-31.17S646.87,426,645.94,402Z" transform="translate(-380 -4.81)"/><path class="bcd28b79-955c-4b87-ac1c-65bc2503eaaf" d="M880.79,323.74s10.06-22.05,30.64-5.39c0,0,23.91,35,11.74,61.32,0,0,2.83-25.67-12.17-42.67C911,337,909,328,880.79,323.74Z" transform="translate(-380 -4.81)"/><path class="f07f8f44-b25a-46af-b842-ff19af83039c" d="M889,320.77s9.34,2.86,16,7.23c6,3.91,9.34,9.3,10.51,10.81C918,342,900.91,297.54,889,320.77Z" transform="translate(-380 -4.81)"/><path class="f07f8f44-b25a-46af-b842-ff19af83039c" d="M875.68,354.87,877,339.4s69,31.6,4,60.6c0,0,33.17-25.27,14.09-39.13C895.09,360.87,889.36,353.74,875.68,354.87Z" transform="translate(-380 -4.81)"/><path class="b50d31d3-36fc-48eb-b8b9-93ddeb33f65c" d="M740,625s46.89-37.56,52.94-44.78S865,441,865,441l10.68,1.45s-4.85,16.8.73,32.17S906,552,906,557s-37-84-37-95c0,0-46.37,73-57.68,95S788,585.43,784,602.22s-6.5,41.41-6.5,41.41l-25.35,3.43S746.43,630,740,625Z" transform="translate(-380 -4.81)"/><path class="bcd28b79-955c-4b87-ac1c-65bc2503eaaf" d="M621,485s-4,1.39-2,6.7,13.07,11.6,12.52,15.45c-.2,1.45,2,5.2.46,6.85a84.79,84.79,0,0,1-8,7s-4.9.66,3-11a46.57,46.57,0,0,1-8.36-7.61C615,498,611.49,481.61,621,485Z" transform="translate(-380 -4.81)"/><path class="b3d2d23d-09e7-4c9d-9954-7978e359a0bb" d="M864,442S813.16,552.23,764,585c-3,2-7,8-10,11a69.07,69.07,0,0,1-14,11c-7.29,4.64-50,30-45,32,9.56,3.82,45.45-14.34,70.72-35.17A229.24,229.24,0,0,0,801,567c27.72-36.23,58.06-89.16,63.27-124.55C864.27,442.45,878.85,445,864,442Z" transform="translate(-380 -4.81)"/><path class="bcd28b79-955c-4b87-ac1c-65bc2503eaaf" d="M882.49,409.62s3.5-.54,0,2.92,9.39,3.54,12.45,0-6-16.46-6-16.46h-8.17Z" transform="translate(-380 -4.81)"/><path class="bcd28b79-955c-4b87-ac1c-65bc2503eaaf" d="M915.75,381.39l7.5-11.17-.08,9.45S911.7,400,909.85,400,915.51,381.79,915.75,381.39Z" transform="translate(-380 -4.81)"/><path class="ba58b66a-cfad-4a76-afad-b8fe75415033" d="M860.15,435s10.21-6,15.53-3L865,441S860.3,444,860.15,435Z" transform="translate(-380 -4.81)"/><path class="ba58b66a-cfad-4a76-afad-b8fe75415033" d="M861.43,408.72a7.74,7.74,0,0,1,.65,2.72c.22,4.81.71,20.2-1.93,23.56-3.15,4,5.85-2.65,5.85-2.65V410.48a8.89,8.89,0,0,0-1.28-4.6l-11.29-18.64L851,381Z" transform="translate(-380 -4.81)"/></g><g id="aac32d0a-4f84-4f8c-8607-d68129fe0524" data-name="Ropa"><path class="b598ec73-1d6d-4ae6-83e6-41cb50f31129" d="M907,557s11,4,9,14,18.61,35,18.61,35L830,661l20,83,6.55,75H737.32S757,788,756,781s3.5-5.45,5-26l22-24s-12-63-22.5-72.5c0,0-10.2-1.37-7.35-11.44.69-2.42,13.31-.06,27.85-4.06,15.43-4.24,33.38-15.13,55-28C873.8,592.5,907,557,907,557Z" transform="translate(-380 -4.81)"/><path class="f1fe4f8f-193b-4e00-9b36-3efd3e2ccb50" d="M915,569s133.09-47.11,146.83-33.24C1070,544,1078.63,569.63,1090,602c13,37,26,68.3,26,68.3V819H848.88l6.12-9-6.12.47L843,783l8-5-8-1.74S833,750,835,749l12-6s-15-3-16-4-5-26-5-26,7-7,9-6-8,0-11-1-10-26-7-27,12-8,12-8-6-7-2-9,158-84,158-84,48-25,52-31-116,32-118,35S915,569,915,569Z" transform="translate(-380 -4.81)"/><path class="f1fe4f8f-193b-4e00-9b36-3efd3e2ccb50" d="M746,638S572,729,557,755v8s-11,2-15,13c0,0,10,19,13,19h11.47S555,803,557,805s9.47,14,9.47,14H739l19-34,4-22,23-35S771,653,746,638Z" transform="translate(-380 -4.81)"/><path class="e713e2cc-f716-45a0-9eca-228dcde74417" d="M1058.8,532.85a6.28,6.28,0,0,0-6.75,6.81c.36,3.41-5.15,10.45-24,24.34-43.73,32.13-144.82,91.34-166,103.7a6.32,6.32,0,0,0-3,6.78L888.43,814a6.33,6.33,0,0,0,6.19,5h109a6.27,6.27,0,0,0,4.07-1.49c9.34-7.86,52.87-44.19,57.33-41.51,5,3,38,28,36,34,0,.1-.07.19-.11.29a6.32,6.32,0,0,0,5.86,8.71h2.92a6.34,6.34,0,0,0,6.33-6.33V671.48a6.31,6.31,0,0,0-.42-2.28l-51.06-132.29a6.33,6.33,0,0,0-5.43-4Z" transform="translate(-380 -4.81)"/><path class="e25ceb48-88c8-4320-8357-3d51e0026abe" d="M953,649s1-13,4-15,23.57,4,23.57,4L978,654s20,6,24,40-30.73,52.94-36.87,52.47c0,0-4.92,1.48-7,0L955.38,763s-18.1,3-19.74,0-2.36-16.11,0-17.55c0,0-28.64-15.45-26.64-49.45C909,696,913,655,953,649Z" transform="translate(-380 -4.81)"/><path class="b9d11ed3-6eb8-4d63-b2e5-7368e08edb9f" d="M897,794s22-5,27-13c0,0,79-12,82-21,0,0,58-14,63-12,0,0-13,12-16,12s-24.7,6.8-27.85,10.9S991,797,992,800s5,6,1,8-10,11-10,11H898.17Z" transform="translate(-380 -4.81)"/><path class="b9d11ed3-6eb8-4d63-b2e5-7368e08edb9f" d="M886,716l21,22-10,52S882,722,886,716Z" transform="translate(-380 -4.81)"/><path class="b9d11ed3-6eb8-4d63-b2e5-7368e08edb9f" d="M882.51,716s-3.49-8.45,0-10.72S879,671,879,671l77.61-42.32V626S934.92,638.43,913,650c-21.09,11.13-42.5,21.28-40.36,26.12C872.64,676.12,875,713,882.51,716Z" transform="translate(-380 -4.81)"/><path class="b9d11ed3-6eb8-4d63-b2e5-7368e08edb9f" d="M1071.11,728.5,1116,691.66V699s-13,29-16,31-36.21,32-39.11,33-5.89,0-7.89,3,39-34,36-35-23,7-27,6S1071.11,728.5,1071.11,728.5Z" transform="translate(-380 -4.81)"/><path class="b9d11ed3-6eb8-4d63-b2e5-7368e08edb9f" d="M1051,781l14-5s36,29,36,34a13.81,13.81,0,0,0,2.31,8h4.9s-3.21-15-6.21-17-32-34-36-33-14,3-15,5S1049,780,1051,781Z" transform="translate(-380 -4.81)"/><path class="b9d11ed3-6eb8-4d63-b2e5-7368e08edb9f" d="M889,749.81s-8.08-2.2-8.55,0S885.32,793,885.32,793s-27.63-117.91-26.48-120.44,8.35,0,8.35,0A53.87,53.87,0,0,1,868,679c0,2,5,11.72,4.49,14.36s.34,16.49,1.43,19.07S879,716,881,719,889,749.81,889,749.81Z" transform="translate(-380 -4.81)"/><path class="b9d11ed3-6eb8-4d63-b2e5-7368e08edb9f" d="M966.05,622.61a100.12,100.12,0,0,0,16.15-10.16,1.55,1.55,0,0,0,.54-2.05,1.51,1.51,0,0,0-2-.54A101,101,0,0,1,964.54,620c-1.73.87-.21,3.45,1.51,2.59Z" transform="translate(-380 -4.81)"/><path class="b9d11ed3-6eb8-4d63-b2e5-7368e08edb9f" d="M997,603.51a115.93,115.93,0,0,0,15.66-11.12,1.52,1.52,0,0,0,0-2.12,1.54,1.54,0,0,0-2.12,0,112.73,112.73,0,0,1-15,10.65,1.5,1.5,0,0,0,1.51,2.59Z" transform="translate(-380 -4.81)"/><path class="b9d11ed3-6eb8-4d63-b2e5-7368e08edb9f" d="M1022.53,585.7c8.34-11.34,22.08-16.79,32.14-26.28a41.34,41.34,0,0,0,7.35-9.1,1.5,1.5,0,0,0-2.59-1.51c-7.12,12.18-20.89,18-31.34,26.8a49.36,49.36,0,0,0-8.15,8.57c-1.15,1.56,1.45,3.06,2.59,1.52Z" transform="translate(-380 -4.81)"/><path class="b9d11ed3-6eb8-4d63-b2e5-7368e08edb9f" d="M1063.91,546.65a10.06,10.06,0,0,1,1.11-1.79l-.24.3a10.54,10.54,0,0,1,1-1.11,1.5,1.5,0,0,0-1.07-2.56,1.63,1.63,0,0,0-1.06.44,11.76,11.76,0,0,0-2.35,3.2,1.67,1.67,0,0,0-.15,1.16,1.59,1.59,0,0,0,.69.9,1.51,1.51,0,0,0,2.06-.54Z" transform="translate(-380 -4.81)"/><polygon class="af34650f-9946-411a-adf4-6afb18b014ee" points="193.12 758.19 179.5 768.69 194.5 786.69 206.5 777.69 209.5 783.69 198.5 792.69 211.79 814.19 224.5 806.69 193.12 758.19"/><path class="af34650f-9946-411a-adf4-6afb18b014ee" d="M574.5,753.5S730.8,644.63,753.15,647.06c0,0,.05,6.59,1.7,8.51s5.65,5.79,5.65,5.79l4,6.14-152,92L648,819H613.57S574.5,756.5,574.5,753.5Z" transform="translate(-380 -4.81)"/><path class="af00c599-ee45-4b9b-a033-f0a050198b35" d="M607.5,758.5s85-69,116-77c0,0,34-16.19,37-18.1s8.74,12.72,8.74,12.72S781.5,696.5,785,728c0,0-24.5,25.5-27.5,26.5,0,0,0,26-3,28,0,0-10.67,29.12-17,37L648,819s-10.46-1.5-18.46-23.5S606.5,764.5,607.5,758.5Z" transform="translate(-380 -4.81)"/><ellipse class="bd0e64f2-011e-4e07-8d22-b76f671505ea" cx="593" cy="755.5" rx="2.5" ry="4" transform="translate(-727.12 554.21) rotate(-40.07)"/><ellipse class="bd0e64f2-011e-4e07-8d22-b76f671505ea" cx="656" cy="713" rx="3.5" ry="2.5" transform="translate(-692.03 667.88) rotate(-45)"/><line class="f22cdc0b-5525-4d48-8353-28e63a1bba91" x1="186.5" y1="763.69" x2="200.5" y2="782.69"/><line class="f22cdc0b-5525-4d48-8353-28e63a1bba91" x1="217" y1="811.19" x2="203" y2="789.19"/><line class="a660f223-652d-403d-8311-134a8a98d46d" x1="202" y1="750.19" x2="244" y2="814.19"/><polyline class="a660f223-652d-403d-8311-134a8a98d46d" points="373 645.19 278.5 699.69 202 750.19"/><line class="b91b07ce-03df-449b-a5cc-ba496239d30a" x1="243.5" y1="753.69" x2="292.5" y2="767.69"/><polyline class="b91b07ce-03df-449b-a5cc-ba496239d30a" points="292.5 767.69 343.5 730.69 398.5 697.69"/><path class="ba43604e-52b6-4717-bf26-cda10866b764" d="M709.25,790s-13.68-34.06-15.71-32.8-23,13.38-21,15.26,15.64,28.55,16.82,28.78S710,791.59,709.25,790Z" transform="translate(-380 -4.81)"/><path class="af00c599-ee45-4b9b-a033-f0a050198b35" d="M683,773.7s4.64-6.51,7.82-5.1S698,774,695,778c0,0,4,0,5,3,.71,2.12,0,6,0,6l-6.81,3-1.47-3,4.51-2.06A18.59,18.59,0,0,1,692,780c-1-2-4.18-4.5-2-6s-5,2-5,2Z" transform="translate(-380 -4.81)"/><path class="ba43604e-52b6-4717-bf26-cda10866b764" d="M688.53,799.83a9.3,9.3,0,0,1,2.27,3.78q1.07,2.46,2.26,4.86a96.12,96.12,0,0,0,5.33,9.29c1.05,1.61,3.64.11,2.59-1.52a95.67,95.67,0,0,1-5.48-9.59c-.79-1.6-1.53-3.22-2.24-4.86a10.22,10.22,0,0,0-2.61-4.08c-1.47-1.24-3.6.88-2.12,2.12Z" transform="translate(-380 -4.81)"/><path class="a1cfa809-17c8-4009-9b6f-17194569a622" d="M720.5,720.5l32.5-18s2.5-4,2.5-6-10,1-13-1-11.87-7.5-11.87-7.5l-10.13,4S717.5,718.5,720.5,720.5Z" transform="translate(-380 -4.81)"/><path class="a1cfa809-17c8-4009-9b6f-17194569a622" d="M691.66,706S647,730.39,648,732.19s24.5,5.31,24.5,5.31l18.32-14.27-1.23-2.73,2.07-4.5S692.31,707.91,691.66,706Z" transform="translate(-380 -4.81)"/><path class="a1cfa809-17c8-4009-9b6f-17194569a622" d="M623.06,768.4c.27-1,13.39,2.6,15.66,4.1s4.77,5.5,4.77,5.5,18.51-1,20,0,4,9,4,9-3.5,17.77-4,20.88-7.5-6.6-7.5-6.6S654.36,788,652.68,787,622.13,771.79,623.06,768.4Z" transform="translate(-380 -4.81)"/><path class="a1cfa809-17c8-4009-9b6f-17194569a622" d="M723.83,747.8s11.81-6.07,13.49-6.43,4.55,6.43,4.55,6.43-11.64,16.66-12.25,20.43-6.62,11.51-4.12,13.64-1.67,3.07-1.67,3.07L719.17,778s-1.84,10.09,0,12S733.5,793,733.5,793l8.37-28.65L746,745s-4-1-2-6,18.5-13.64,18.5-13.64L758,725S724.66,744.61,723.83,747.8Z" transform="translate(-380 -4.81)"/><polygon class="a1cfa809-17c8-4009-9b6f-17194569a622" points="292.5 770.93 316.23 814.19 310.82 814.43 289.5 770.93 292.5 770.93"/><path class="a1cfa809-17c8-4009-9b6f-17194569a622" d="M711.7,801.28S723.94,819,722.47,819H711.7l-12-20.23h3.72S709.4,802.56,711.7,801.28Z" transform="translate(-380 -4.81)"/><ellipse class="f8889e01-a5c6-4594-9791-c3f25dce8a00" cx="947.88" cy="691.88" rx="4.12" ry="5.12" transform="translate(-404.11 1344.65) rotate(-70.21)"/><ellipse class="f8889e01-a5c6-4594-9791-c3f25dce8a00" cx="961.88" cy="709.38" rx="3.12" ry="4.62" transform="translate(-613.19 719.93) rotate(-37.14)"/><ellipse class="f8889e01-a5c6-4594-9791-c3f25dce8a00" cx="968.59" cy="689.59" rx="3.41" ry="4.41" transform="translate(-554.18 356.48) rotate(-19.42)"/><path class="f8889e01-a5c6-4594-9791-c3f25dce8a00" d="M946.91,659.82a38.52,38.52,0,0,0-17.24,14.54,47.5,47.5,0,0,0-5.41,11.43,45.33,45.33,0,0,0-2.4,12.4c-.13,5,2,9.91,4.11,14.38.82,1.75,3.41.23,2.59-1.51-1.68-3.55-3.5-7.53-3.69-11.5a36,36,0,0,1,1.83-11.5,41.89,41.89,0,0,1,11.24-18.93,33.11,33.11,0,0,1,9.77-6.42,1.54,1.54,0,0,0,1-1.84,1.5,1.5,0,0,0-1.84-1Z" transform="translate(-380 -4.81)"/><path class="f8889e01-a5c6-4594-9791-c3f25dce8a00" d="M954,659.48c2.11,0,4.23,0,6.35.11a8.67,8.67,0,0,1,4.75,1.13,1.5,1.5,0,1,0,1.52-2.59,11.17,11.17,0,0,0-5.88-1.53c-2.24-.08-4.49-.08-6.74-.12-1.93,0-1.93,3,0,3Z" transform="translate(-380 -4.81)"/><path class="f8889e01-a5c6-4594-9791-c3f25dce8a00" d="M975.13,661.89a31.35,31.35,0,0,1,14.6,11.21,32.58,32.58,0,0,1,4.9,8.74c1.21,3.59.94,7.28.6,11-.17,1.92,2.83,1.91,3,0,.38-4.12.58-8.23-.85-12.19a36.16,36.16,0,0,0-5.3-9.37A34.75,34.75,0,0,0,975.93,659c-1.83-.63-2.61,2.27-.8,2.9Z" transform="translate(-380 -4.81)"/><path class="f8889e01-a5c6-4594-9791-c3f25dce8a00" d="M994.94,697.37c1,13.31-9.1,23.64-16.49,33.49-1.16,1.55,1.44,3,2.59,1.52,7.75-10.33,17.94-21.07,16.9-35-.15-1.91-3.15-1.93-3,0Z" transform="translate(-380 -4.81)"/><path class="f8889e01-a5c6-4594-9791-c3f25dce8a00" d="M928.79,719.06c2.68,3,5.36,6,8.32,8.68,2.68,2.45,5.69,4.48,9.37,4.88a1.5,1.5,0,0,0,1.5-1.5,1.53,1.53,0,0,0-1.5-1.5c-3.09-.34-5.68-2.5-7.85-4.56-2.71-2.57-5.22-5.35-7.72-8.12-1.3-1.44-3.41.69-2.12,2.12Z" transform="translate(-380 -4.81)"/><path class="a5033bb3-8626-4bd4-b65a-058be05689f7" d="M935.33,699s4.18-21.13,15.93-23S974,677,977,680s5.5,11.5,5.5,11.5-.5,6.43-.5,7.46-1.93,13-7.47,19S939.66,729.93,935.33,699Z" transform="translate(-380 -4.81)"/><rect class="f8889e01-a5c6-4594-9791-c3f25dce8a00" x="588.59" y="636.12" width="4.78" height="4.95"/><path class="f8889e01-a5c6-4594-9791-c3f25dce8a00" d="M947.88,747.8s3.54,4.17,6.08,3.43,0,3.77,0,3.77h-7.48Z" transform="translate(-380 -4.81)"/><path class="a3b8ad9d-3bdb-4b87-be5c-e8b1c6c2b4e4" d="M946.4,655.08l.08.83s-22.29,6.17-25.88,30.63-6.52,26.85,12.94,45.65c0,0,15.53,18.6,42,10.2,0,0-17.25,10.5-39.89,3.06,0,0-44.54-29.18-21.09-68.81,0,0,10.58-19.24,27.12-24.6A3.6,3.6,0,0,1,946.4,655.08Z" transform="translate(-380 -4.81)"/><path class="b20e145f-1ad8-4269-9e9f-064402768928" d="M1021.23,659.43l42.38,30.16-10.68,42s-7.55-2.79-7.74-2.7S1044,739,1044,739l-22.77,7.13s-40.74-7.35-40.49-7.24S1021.46,716.85,1021.23,659.43Z" transform="translate(-380 -4.81)"/><path class="b20e145f-1ad8-4269-9e9f-064402768928" d="M1065.94,546c2.06,1-3.5,76.19-5.22,77.61s11.71,19.84,11.71,19.84l12-7.92L1103,667l7.44-11.12L1069,544Z" transform="translate(-380 -4.81)"/><path class="b20e145f-1ad8-4269-9e9f-064402768928" d="M1092,761c-1,0,6-3,6-3s20,13,19,14-1,11.4-1,11.4-10.06-7.91-11.53-7.66S1092,761,1092,761Z" transform="translate(-380 -4.81)"/><path class="b20e145f-1ad8-4269-9e9f-064402768928" d="M1087,755l29-18.74,1,7.83S1089,756,1087,755Z" transform="translate(-380 -4.81)"/><path class="b20e145f-1ad8-4269-9e9f-064402768928" d="M1060.72,768l2.89-3.65,30.94-9.27L1102,758h-8.13S1061.44,767,1060.72,768Z" transform="translate(-380 -4.81)"/><path class="b9535522-ca32-457a-b5d1-a400cb880cc5" d="M1043,795l17.72-14.49L1087,803.32h4.9S1095,807,1094,808s-25.4,11-25.4,11h-5S1041,797,1043,795Z" transform="translate(-380 -4.81)"/><polygon class="b9535522-ca32-457a-b5d1-a400cb880cc5" points="451 676.19 437 674.19 449 666.19 470.81 666.6 478.81 694.15 466 703.19 454 676.19 451 676.19"/><polygon class="b9535522-ca32-457a-b5d1-a400cb880cc5" points="466.04 709.69 482.38 703.19 488.85 731.44 474 739.19 466.04 709.69"/><polygon class="b9535522-ca32-457a-b5d1-a400cb880cc5" points="473.87 746.59 490.67 739.19 496.68 767.69 481.36 774.41 473.87 746.59"/><polygon class="b9535522-ca32-457a-b5d1-a400cb880cc5" points="480.68 778.59 496.68 774.41 503.15 803.07 488.85 809.06 480.68 778.59"/><polygon class="b9535522-ca32-457a-b5d1-a400cb880cc5" points="448.68 708.19 457.9 703.19 482.38 703.19 466.04 709.69 448.68 708.19"/><polygon class="b9535522-ca32-457a-b5d1-a400cb880cc5" points="465.53 662.19 464 658.42 545.31 618.08 541.96 616.5 455.97 658.42 461 664.19 465.53 662.19"/><path class="b9535522-ca32-457a-b5d1-a400cb880cc5" d="M850.81,663.23,931,624l-3-4,66-41s44-28,43-32-2-9.11,4-9.55a78.77,78.77,0,0,1,11.25,0,8.07,8.07,0,0,1-3.73,9.07c-5.5,3.48-3.66,8.54-42.08,32.51s-96.82,63.4-102.12,63.68L862,667.7Z" transform="translate(-380 -4.81)"/><path class="b9535522-ca32-457a-b5d1-a400cb880cc5" d="M840.14,678.37A83,83,0,0,0,843,693.68c.68,2.38,1.7,4.7,2.26,7.11s.37,4.77,1.43,7c.82,1.75,3.41.23,2.59-1.51-1-2.08-.64-4.56-1.23-6.75s-1.51-4.44-2.16-6.69a78.69,78.69,0,0,1-2.74-14.51c-.18-1.9-3.18-1.92-3,0Z" transform="translate(-380 -4.81)"/><path class="abfa549e-dbd9-41c2-b47d-0c059449cf20" d="M858.87,751q3,12.85,6.94,25.49c.56,1.84,3.46,1.06,2.89-.8q-3.88-12.63-6.94-25.49c-.45-1.88-3.34-1.08-2.89.8Z" transform="translate(-380 -4.81)"/><path class="abfa549e-dbd9-41c2-b47d-0c059449cf20" d="M865.32,784q1.5,7.74,3.42,15.38.94,3.76,2,7.5c.72,2.53,1.63,5.06,1.53,7.73-.07,1.93,2.93,1.92,3,0A24.28,24.28,0,0,0,873.9,807q-1.12-4-2.15-8-2-7.87-3.54-15.85c-.36-1.9-3.26-1.1-2.89.79Z" transform="translate(-380 -4.81)"/><path class="abfa549e-dbd9-41c2-b47d-0c059449cf20" d="M850,715c.64.22.77,2.26.91,2.86.26,1.1.53,2.21.81,3.31q.85,3.44,1.8,6.84,1.85,6.69,4,13.29c.6,1.82,3.5,1,2.89-.8Q858,733,855.89,725.32q-1-3.77-1.93-7.56c-.53-2.23-.67-4.83-3.17-5.66-1.84-.61-2.62,2.28-.8,2.89Z" transform="translate(-380 -4.81)"/><path class="abfa549e-dbd9-41c2-b47d-0c059449cf20" d="M838.13,679.46q4.57,13.6,7.87,27.57c.45,1.87,3.34,1.08,2.9-.8q-3.3-14-7.88-27.56c-.61-1.82-3.51-1-2.89.79Z" transform="translate(-380 -4.81)"/><path class="af34650f-9946-411a-adf4-6afb18b014ee" d="M918,580s112.5-37.5,119-33-102.39,59-102.39,59A105.92,105.92,0,0,1,923,592C919.34,586.47,917.78,580.66,918,580Z" transform="translate(-380 -4.81)"/><path class="af00c599-ee45-4b9b-a033-f0a050198b35" d="M930,598s39-16.53,43-12l-38,20Z" transform="translate(-380 -4.81)"/><path class="a1cfa809-17c8-4009-9b6f-17194569a622" d="M973.37,533.25S1013,510,1016,510s9.66,3,11.83,8,9.17,27,9.17,29c0,.85-5.56,7.8-14,14a261.37,261.37,0,0,1-26.73,16.55S979.74,530.5,973.37,533.25Z" transform="translate(-380 -4.81)"/><path class="bc406448-b174-4eea-92d1-23bcf4faf49c" d="M973,549.57s-9.26-10.07.37-16.32c0,0,8.16-3.16,22.9,44.3l-7.62,4.78S972,552.14,973,549.57Z" transform="translate(-380 -4.81)"/><path class="e4a01195-f8f0-4bab-b742-23e2cc56f11c" d="M973,541.13q8.67,20.58,17.89,40.93c.8,1.76,3.38.23,2.59-1.51q-9.08-20-17.59-40.22a1.56,1.56,0,0,0-1.84-1.05,1.51,1.51,0,0,0-1,1.85Z" transform="translate(-380 -4.81)"/><path class="e4a01195-f8f0-4bab-b742-23e2cc56f11c" d="M986.29,539.76l4.52-2.51S1001,551,1000,553l-4.85,2.91S988.58,540.52,986.29,539.76Z" transform="translate(-380 -4.81)"/><path class="e4a01195-f8f0-4bab-b742-23e2cc56f11c" d="M993.18,535.23l3.86-2.4s10.75,14.31,9.85,16.74l-4.57,2.77S995.36,533.47,993.18,535.23Z" transform="translate(-380 -4.81)"/><polygon class="e4a01195-f8f0-4bab-b742-23e2cc56f11c" points="619.23 528.02 622.32 525.83 631.62 540.38 629 543.19 619.23 528.02"/><path class="e4a01195-f8f0-4bab-b742-23e2cc56f11c" d="M1003.94,529.74l3-1.4s9,13.21,9,15.43l-3,1.23S1004.88,529.49,1003.94,529.74Z" transform="translate(-380 -4.81)"/><path class="e4a01195-f8f0-4bab-b742-23e2cc56f11c" d="M1008,528l3-2s8.32,12.46,8.66,14.73l-2.55,2.16S1010,527,1008,528Z" transform="translate(-380 -4.81)"/><path class="e4a01195-f8f0-4bab-b742-23e2cc56f11c" d="M1011.62,524.89,1015,524s8,14,8,15l-1.77,1.73S1012.23,523.79,1011.62,524.89Z" transform="translate(-380 -4.81)"/><path class="e4a01195-f8f0-4bab-b742-23e2cc56f11c" d="M1015,523l4-1s8,12,8,14l-3,2S1016,522,1015,523Z" transform="translate(-380 -4.81)"/></g><g id="b7bcc635-8c39-4891-9207-64d4c9c93d79" data-name="Rostro"><path class="ef0684f7-c78f-4f7a-a60a-413351f79429" d="M773.5,445.5" transform="translate(-380 -4.81)"/><path class="b7e467e9-bf8c-4d19-bed3-72f4bfc2e2ef" d="M653.5,384.5s3-47,73-40l7.5-4.84S644.5,321.5,653.5,384.5Z" transform="translate(-380 -4.81)"/><path class="b7e467e9-bf8c-4d19-bed3-72f4bfc2e2ef" d="M733.5,339.5s-15,27-25,29C708.5,368.5,728,337.45,733.5,339.5Z" transform="translate(-380 -4.81)"/><path class="b7e467e9-bf8c-4d19-bed3-72f4bfc2e2ef" d="M679.51,350.22S672,365,688,371c0,0,13.83,6.53,30.91-17.74,0,0,1.31-6.54-1.8-9.4S681,343.44,679.51,350.22Z" transform="translate(-380 -4.81)"/><path class="b7e467e9-bf8c-4d19-bed3-72f4bfc2e2ef" d="M574,426s-54,17-19,40l-1,3s-49-28,19-45C573,424,577,423,574,426Z" transform="translate(-380 -4.81)"/><polygon class="b7e467e9-bf8c-4d19-bed3-72f4bfc2e2ef" points="196 444.19 175 461.19 174 464.19 176.02 464.19 196 444.19"/><path class="b7e467e9-bf8c-4d19-bed3-72f4bfc2e2ef" d="M574,426s-33,4-9,28c0,0,8.25.95,11-7C577.43,442.87,576.74,436.6,574,426Z" transform="translate(-380 -4.81)"/><path class="e860e465-2ddf-438f-875d-253c2fba44bf" d="M598.89,357.24S585,357,583,352l3.64,1.95S580,348,579,341c0,0,1.87,2.18,4,2,1.56-.13-.78-1.84,0-1,1.85,2-1-10,7-18l-1,11.06S592,323,595,322l-1,12s1-10,3-16v11s2.38-8.83,4-11c.58-.78-1.74,6.77-1,6,1-1.08,2.74-4.37,4-6,.39-.5-1.41,5.49-1,5,1-1.21,3.85-6.44,5-8,.45-.61-1.33,5.67-1,5,4-8,10.26-15.29,13-17l6-6-4,7,11-12v3.74s8-8.74,13-9.74l-3,5s11-10,13-10c0,0,48.64-18,83.32,0L735,282S665.79,272.48,598.89,357.24Z" transform="translate(-380 -4.81)"/><path class="e860e465-2ddf-438f-875d-253c2fba44bf" d="M554,391.4s-11.08-19.76-18-19.4l1,3-5-2,2,3-8-1,5,2-7,1,5,1-10,2h4l-8,4s5.81-.68,5,0c-.42.35-8.4,4.51-9,5-7.53,6.12-22,20.94-5,42C506,432,515,386.81,554,391.4Z" transform="translate(-380 -4.81)"/><path class="b7e467e9-bf8c-4d19-bed3-72f4bfc2e2ef" d="M613,471s22-7,23,7c0,0,1,2-9,2,0,0,1.74-3.38,0-5S612,471,613,471Z" transform="translate(-380 -4.81)"/><path class="b7e467e9-bf8c-4d19-bed3-72f4bfc2e2ef" d="M607,496s-5-7-8-8,1.17,0,1.17,0-7.3,1.11-11.23-.44S605,496,607,496Z" transform="translate(-380 -4.81)"/><path class="b7e467e9-bf8c-4d19-bed3-72f4bfc2e2ef" d="M554,391.4s25.45-1.25,22.73,64.17c0,0-6.86,33.54,12.21,32,0,0-5.94-.56-7.94-5.56s-4.55-5-4.27-23c0,0,1.42-21,.84-24S576,393.81,554,391.4Z" transform="translate(-380 -4.81)"/><path class="b7e467e9-bf8c-4d19-bed3-72f4bfc2e2ef" d="M652.86,531.15s26,2.68,40.57-11.24c0,0-39.43-11.91-61.43-8.91,0,0-3,5-17,10,0,0-19,24,6,40,4.8-1.32,10.21.18,13-11,2-8,.51-4.54,1-7C636,538,641.3,537.6,652.86,531.15Z" transform="translate(-380 -4.81)"/><path class="b7e467e9-bf8c-4d19-bed3-72f4bfc2e2ef" d="M699,521s-9,26-16,36.53C671.13,575.39,646,585,644,584s-16.37-2.25-16.18-25.13c0,0,60-40,65.61-39Z" transform="translate(-380 -4.81)"/><path d="M713,567" transform="translate(-380 -4.81)"/><path class="e860e465-2ddf-438f-875d-253c2fba44bf" d="M850.89,372c-.61,2,14.11-69,44.11-74,0,0,35.4-3.87,46,59,0,0-1,12-4,21-8.52,25.55-32,73.5-71,63,0,0,7-9,15-9s40.51-.76,51-71c0,0-8.51-60.57-38.26-58.79C893.74,302.21,871.79,303,850.89,372Z" transform="translate(-380 -4.81)"/><path class="b50d31d3-36fc-48eb-b8b9-93ddeb33f65c" d="M866,441S819.19,608.44,699,631a154.1,154.1,0,0,0-18,4c-6.52,2-17.39,0-22,0,0,0,7,12.13,24,12.06S815,619,866,441Z" transform="translate(-380 -4.81)"/><path class="bb312942-8ec0-4917-94bd-049d165fd97d" d="M645.57,277S628,273,656,262c0,0,52,27.43,42.5,36.21S683,309,680,305,644.15,280,645.57,277Z" transform="translate(-380 -4.81)"/><path class="b5de5f09-392f-45b0-a8c9-c5a184e7b561" d="M571.47,415.91s-12.43-2.08-15.45,0S538,427,538,427s-11.15,14-9.57,18.5c0,0-1.17.74,1.57-13.5C530,432,550.94,402.83,571.47,415.91Z" transform="translate(-380 -4.81)"/><path class="b5de5f09-392f-45b0-a8c9-c5a184e7b561" d="M633,386s3-12,0-14,7.32-41.28,76.66-46.64c0,0,24-3.64,29.66,0L736,329S647,315,633,386Z" transform="translate(-380 -4.81)"/><path class="b7e467e9-bf8c-4d19-bed3-72f4bfc2e2ef" d="M693.5,337.5s9-17,9-19-5.5,16.05-4,19S693.5,337.5,693.5,337.5Z" transform="translate(-380 -4.81)"/><path class="b7e467e9-bf8c-4d19-bed3-72f4bfc2e2ef" d="M708.5,335.91s9.87-13,10.69-15S714,334.83,708.5,335.91Z" transform="translate(-380 -4.81)"/><path class="b7e467e9-bf8c-4d19-bed3-72f4bfc2e2ef" d="M683,342.68s-7.5-7-5.25-8.34S680,342.37,683,342.68Z" transform="translate(-380 -4.81)"/><path class="b7e467e9-bf8c-4d19-bed3-72f4bfc2e2ef" d="M663.41,341.13S664,349,667,349,660.82,342.26,663.41,341.13Z" transform="translate(-380 -4.81)"/><path class="b7e467e9-bf8c-4d19-bed3-72f4bfc2e2ef" d="M657.43,357.24s-9,3-13.43,1.76S658.86,365.48,657.43,357.24Z" transform="translate(-380 -4.81)"/><path class="b7e467e9-bf8c-4d19-bed3-72f4bfc2e2ef" d="M655.07,362.34s-10.53,6.05-15.3,3.85S649.14,372.68,655.07,362.34Z" transform="translate(-380 -4.81)"/><path class="b7e467e9-bf8c-4d19-bed3-72f4bfc2e2ef" d="M721,337.23s14-6.76,13-8.49S739,333.46,721,337.23Z" transform="translate(-380 -4.81)"/><path class="b7e467e9-bf8c-4d19-bed3-72f4bfc2e2ef" d="M723.83,338.81S749,327.49,749,323.74,749.66,333.62,723.83,338.81Z" transform="translate(-380 -4.81)"/><path class="b7e467e9-bf8c-4d19-bed3-72f4bfc2e2ef" d="M747.66,354.87S726,349.9,721,354,741.32,354.74,747.66,354.87Z" transform="translate(-380 -4.81)"/><path class="b7e467e9-bf8c-4d19-bed3-72f4bfc2e2ef" d="M734.32,363.5s-13.79-4.34-15.4-7.48S729.65,355.5,734.32,363.5Z" transform="translate(-380 -4.81)"/><path class="b7e467e9-bf8c-4d19-bed3-72f4bfc2e2ef" d="M733.5,339.5,749,331s-14.59,12.17-17,14S733.5,339.5,733.5,339.5Z" transform="translate(-380 -4.81)"/><path class="b7e467e9-bf8c-4d19-bed3-72f4bfc2e2ef" d="M528.43,445.5s9.57,2.5,11.57,0S542.85,454,528.43,445.5Z" transform="translate(-380 -4.81)"/><path class="b7e467e9-bf8c-4d19-bed3-72f4bfc2e2ef" d="M528.18,460.51s14-4.55,12.93-9.53S532.36,461,528.18,460.51Z" transform="translate(-380 -4.81)"/><path class="b7e467e9-bf8c-4d19-bed3-72f4bfc2e2ef" d="M534.77,433.62s4.57,7.42,6.4,6.4S534.53,435.23,534.77,433.62Z" transform="translate(-380 -4.81)"/><path class="b7e467e9-bf8c-4d19-bed3-72f4bfc2e2ef" d="M533,467s4.86-13.51,8.43-11.76S538,460,533,467Z" transform="translate(-380 -4.81)"/><path class="b7e467e9-bf8c-4d19-bed3-72f4bfc2e2ef" d="M546.13,429s-.15,8.71,1.36,7.85S546.26,433.05,546.13,429Z" transform="translate(-380 -4.81)"/><path class="b7e467e9-bf8c-4d19-bed3-72f4bfc2e2ef" d="M537.7,472.17s6.55-12.08,8.42-11.13S544.41,465.34,537.7,472.17Z" transform="translate(-380 -4.81)"/></g><g id="ef4d4d3e-057a-45ac-b8d4-cb2e7ec2dc47" data-name="cabello"><path class="e860e465-2ddf-438f-875d-253c2fba44bf" d="M512.57,273S543,264,546,256c0,0,16-14,16-34,0,0,29,0,32-3,0,0-11-9.09-14-9s17,2,20,7c0,0-4-13-10-14,0,0,15,10,20,8l9-4s-10-7-9-8c0,0,8,4,11,3l1-16s4,10,9,11c0,0,14-2,16-3,0,0,19,17,44,15,0,0,21,23,41,22,0,0,17,18,26,22l24,18-10-10s24,20,24,26c0,0,18,29,30,36,0,0-12-11-11-13s18,21,19,21,6,14,5,18,12.88,33.55,12.88,33.55S857,397,856,400l-4.11-28s64.26,4,68.68,0c0,0-57.57-1-64.57-7,0,0,49.55,7,50.28,3.5,0,0-41.6-4.77-44.94-7.63L905,367s-44.66-14.3-45.33-17.65S901,333,899,326c0,0-21.94,14.8-28.47,13.4,0,0-8.17,1.06-8.85-2.17,0,0,55.32-3.23,60.32-5.23,0,0-51,2-55-5,0,0,13.84-23.27,22.17-26.64C895,298,901,298.23,910,305c7.89,6,17.13,18.86,27.61,57.81,0,0-10.61,64.19-57.61,77.19,0,0-17,10,9,58l5.74,10.94L913,518l-3-17,8,8-8-15s51,15,55,5c0,0,1,0-1-4l9-1s3,1,0,6.51c0,0,8-6.51,6-10.51l3,6s-4,31-3,34c0,0,7-25,11-25,0,0-5,14-5,18,0,0,32-88,28-100a95.24,95.24,0,0,1-9,45l-15,45s32-68,29-101c0,0,6,0,4,22,0,0,5-26,2-37,0,0,3,8,3,13,0,0,2.08-24.87-2-31,0,0,3-9,14,28,0,0,9-61,4-69s0-1,0-1,7,13,5,18c0,0,3-17,2-19s6,21,1,31l6-8s-12-94-24-96c0,0,28,5,30,4,0,0-12-8-17-10,0,0,19-4,41,7,0,0-24-21-40-26,0,0-36-15-40-26,0,0,2,8,26,8s51-2,51-2-69,5-85-15l-44-49s52-20,57-27c0,0-58,23-62,21s-12-11-12-11,28-23,26-25-.7,0-.7,0S949,122,945,122s25-25,35-21c0,0-9-5-37,4,0,0-32,3-33,9,0,0-13.33-16.39-29-34-10.79-12.12-25.35-23.22-31.31-29.11a39.11,39.11,0,0,0-11.33-7.8L804,22C753.07-1,723.61-.47,672,21L624,40s-24,16-26,16-27,9-30,8-17-4-17-5-43,18-44,22l-5,1s-25,26-27,26-57,56-61,70-28,53-31,65c0,0,19,58,19,61s-.6,63-3.3,68c0,0-4.38,63.84-2,74.42,0,0,4.34,22.58,2.34,26.58s-1.32,23-1.32,23,1.34,13,3.83,14.52S406.36,530,406.36,530,400,562,397,566s-17,43-17,43,26.23-52,26.62-57c0,0-4.62,38-9.62,42s13-5,13-5l-7,9s16-9,16-12,24-20,23-30l6,17s1,40-1,42,13-19.86,13.49-30.93c0,0,8.51,22.93,11.51,24.93s-1,59,1,62,3,34,3,34l1-20,4,15,5,63,2-48s3,26,5,29,0,15,0,15l9-29s-1,22-5,30l15-19s5-14,3-15c0,0,3,6,1,8,0,0,17-36,15-41,0,0,6,54,3,57,0,0,4-4,4-9V694h4v15l2-10v19h2l4-30,2,5s-2,34-3,36,37-65,35-72c0,0,22,11,38,9l6,11s-7-21-5-23c0,0-3-10-3-9s11,8,13,12-21-30-21-30l23,9s21,2,26,9l-10-14,9,4s-47.83-40.28-50.91-45.64S554.74,531,550.87,496c0,0-5.87-20-17.87-27,0,0-45-51-36-71S493.15,267,512.57,273Z" transform="translate(-380 -4.81)"/><g id="e1946d89-e00b-4b5b-bb2d-a25bf713adb8" data-name="sombras oscuras"><path class="b7e467e9-bf8c-4d19-bed3-72f4bfc2e2ef" d="M481.69,183.55s24.46-40.44,34.39-36c0,0,18.57-1.66,33.74,6.9,0,0-27.81-19.19-37.82-15.32s28.41-8.45,25.7-13.79,15.34-4.66,18.32,0,15.45,13.79,15.45,13.79S542.06,91.87,526,93.94c0,0,24.85-25,21.91-29S502,82,502,82s-66,57.62-87,94l-32,67,19,66s54.55,149,47.28,168.5L454,532l.89-120,23.83,52s-39.27-85.35-32-127.68c0,0-8.72-51.32,1.28-63.32,0,0-17.89,14.69-9.45,50.35,0,0-38.55-40.35-15.55-77.35s98.25-70.88,123.12-57.44l12.94-2.71S518.37,166.11,481.69,183.55Z" transform="translate(-380 -4.81)"/><path class="b7e467e9-bf8c-4d19-bed3-72f4bfc2e2ef" d="M624.49,125.19s52.84-1.59,55.68,5.11c0,0-57.41,18.61-64.29,31.66S624.49,125.19,624.49,125.19Z" transform="translate(-380 -4.81)"/><path class="b7e467e9-bf8c-4d19-bed3-72f4bfc2e2ef" d="M755.15,164.13S847,190,1012,127c0,0-102.43,35.12-118.71,56.56S871.67,214,871.67,214L850.88,231.4l-63-22.46S752.3,173.27,755.15,164.13Z" transform="translate(-380 -4.81)"/><path class="b7e467e9-bf8c-4d19-bed3-72f4bfc2e2ef" d="M1021,245s38.71,1.2,40.35,11.6L1046,257l17,10-30-4S1038,268,1021,245Z" transform="translate(-380 -4.81)"/><path class="b7e467e9-bf8c-4d19-bed3-72f4bfc2e2ef" d="M916.75,452.8s29-23.73,40.61-18.27a35.71,35.71,0,0,1,16.34,16l-4.08,20.77S965,486,973,494s-8,5-8,5-28,3-55-5l8,15-8-8,3,17-18.26-9.06S861,459,877,440c0,0,24.31,8,56.65-33l-6,22Z" transform="translate(-380 -4.81)"/><path class="b7e467e9-bf8c-4d19-bed3-72f4bfc2e2ef" d="M841.7,164.13s29.07-15.81,33.69-28.47c0,0,26.4-19.43,34.5-22S977,95,980,101c0,0-32,7-39,24l22.3-13L938,133l-21.25,23.26L883,164l-41.3,4.06Z" transform="translate(-380 -4.81)"/><path class="b7e467e9-bf8c-4d19-bed3-72f4bfc2e2ef" d="M644,92s-11-14-16-14-39-6.68-39-6.68,37.09-15.26,43.54-11.79S647,80,644,92Z" transform="translate(-380 -4.81)"/><path class="b7e467e9-bf8c-4d19-bed3-72f4bfc2e2ef" d="M965.79,320.77S958.24,297.12,970,315s32,66,29.49,71A65.84,65.84,0,0,1,993,396s2.4,29.67,6.7,36.84,2.7,18.52,0,21.34-6.34-15.71-6.34-15.71l-10.48,7.95s-13-18.25-11-24.34S980,396.81,980,391.4s5.48-37-4.76-48.72Z" transform="translate(-380 -4.81)"/><path class="b7e467e9-bf8c-4d19-bed3-72f4bfc2e2ef" d="M499.18,497.65s22.1,126.26,18,144.31l-19.08-68.17L493.21,561l-11.52,36.53,20.46,79.66s.51,26.53-6.82,32.17,19.5,0,19.5,0S536,635.78,556,645.89l53.16-20,34.16,11.41L661,645s-40.94-28.58-78-61c-5.57-4.87-11.59-9.78-17-15C530.72,535,501.1,496.57,499.18,497.65Z" transform="translate(-380 -4.81)"/><path class="b7e467e9-bf8c-4d19-bed3-72f4bfc2e2ef" d="M881.79,241.53S935,210,941,211c0,0-3-3.24,0-5.11S864,234,864,234l7.67,7.53L866,245s17.83,10.74,21.91,8.87C887.91,253.87,879.57,246.06,881.79,241.53Z" transform="translate(-380 -4.81)"/><path class="b7e467e9-bf8c-4d19-bed3-72f4bfc2e2ef" d="M629,83s16,22,16.5,25.5,0-12.75,0-12.75S630,88,629,83Z" transform="translate(-380 -4.81)"/><path class="b7e467e9-bf8c-4d19-bed3-72f4bfc2e2ef" d="M414,466.58s-21.69,21-15.36,36.19,11,14.23,7.68,27.23L414,567V518l7.66,34s-2.06-58.9,5.62-67.44S414,466.58,414,466.58Z" transform="translate(-380 -4.81)"/><path class="b7e467e9-bf8c-4d19-bed3-72f4bfc2e2ef" d="M762.5,245s31.57,35,59.54,28,36-10,44-6-20-22.6-42-19.3-31.06,6.39-31.06,6.39S766,250,762.5,245Z" transform="translate(-380 -4.81)"/><path class="b7e467e9-bf8c-4d19-bed3-72f4bfc2e2ef" d="M850.88,349s-17.35-33-18.11-40,28.38-31.13,28.38-31.13S845.9,297.94,847,307s14.2,19.53,14.2,19.53L847,323.74S850.75,349,850.88,349Z" transform="translate(-380 -4.81)"/><path class="b7e467e9-bf8c-4d19-bed3-72f4bfc2e2ef" d="M565,168.06s45.65-1.81,51.82,5.56l-10.16,0,9.22,9.92L606.66,186l10.16,2S587,190.12,579,183.56A82.08,82.08,0,0,1,565,168.06Z" transform="translate(-380 -4.81)"/></g><g id="aba5193a-9c16-4597-b379-98d2c92947ba" data-name="Sombras claras"><path class="bcd40831-b3aa-42ea-b511-25df9cf03196" d="M598,158,579,99.66S594.89,89,601.45,92s38.68,18.38,38.68,18.38L568,64l-17-5s-1,40.55,3,46.28S598,158,598,158Z" transform="translate(-380 -4.81)"/><path class="bcd40831-b3aa-42ea-b511-25df9cf03196" d="M588.94,108.5s24,16.88,35.55,16.69l-6.83,23.09S586.87,111,588.94,108.5Z" transform="translate(-380 -4.81)"/><path class="bcd40831-b3aa-42ea-b511-25df9cf03196" d="M647.14,87.4l10.37,21.1s17.82-13.17,22.66-8.84S709.94,95,713,92s38-9.7,38-9.7V75.51l-14.57,2.7-5.22-5.1H718.77L726.54,70H715.83l28.6-18.46-74.54-.31L644.65,70.55S643.28,84.81,647.14,87.4Z" transform="translate(-380 -4.81)"/><path class="bcd40831-b3aa-42ea-b511-25df9cf03196" d="M502.15,253.87S442,244,438,242s28,3,28,3l-4-3.47,47,1.13Z" transform="translate(-380 -4.81)"/><path class="bcd40831-b3aa-42ea-b511-25df9cf03196" d="M469.19,467s8.18,69.51,12.5,73.76l-6.25,49.11L494,554l13.47,44S484.38,466,469.19,467Z" transform="translate(-380 -4.81)"/><path class="bcd40831-b3aa-42ea-b511-25df9cf03196" d="M408.94,367.54l12.76,45S408,354.13,412,345.06,402,309,402,309l-5.94,117.3S404.87,369.07,408.94,367.54Z" transform="translate(-380 -4.81)"/><path class="bcd40831-b3aa-42ea-b511-25df9cf03196" d="M652.86,111.4S733,81,739,88c0,0,46,7,51,17l19,13,9,13H799.06l6.94,7-15.62-4.14S825,148,825,152s11.85,12.13,11.85,12.13-24.19-2.13-25-6.13S800,156,800,156s-17.64-8.45-19.32-7.72,7.15,15.85,7.15,15.85S760,162,758,161s-49.5-36-49.5-36-50.65-.84-58.07-4.43S652.86,111.4,652.86,111.4Z" transform="translate(-380 -4.81)"/><path class="bcd40831-b3aa-42ea-b511-25df9cf03196" d="M944.25,217.62s52.47,59.12,58.11,60.25L952,239l-7.75.06-16.63-13.27-2.31-8.17S941.5,214.23,944.25,217.62Z" transform="translate(-380 -4.81)"/><path class="bcd40831-b3aa-42ea-b511-25df9cf03196" d="M980,294.72c-1,2.28,14.64,51.18,14.64,51.18s9.1,14,11.23,19l3.07-8.95s8.06,38,3.06,46,9-22.33,9-22.33,6.57-35.41,4.79-38.54-15.79-51-13.79-54.58-9,19.69-9,28.57S988,307,988,307Z" transform="translate(-380 -4.81)"/><path class="bcd40831-b3aa-42ea-b511-25df9cf03196" d="M815,64.53S853.3,68.91,861.15,87,890,109,890,109l-24,16.55L847,99.66,864,109s-19.3-28-27.15-26-58.21-3.11-58.21-3.11S804.9,62.06,815,64.53Z" transform="translate(-380 -4.81)"/><path class="bcd40831-b3aa-42ea-b511-25df9cf03196" d="M670,158s38.42-17.28,61.21,9.86S789,244.94,805,242s-31.5-.47-31.5-.47l-37.07-47.91L741,217.35,721,190l-7.12,10.67S663,168,670,158Z" transform="translate(-380 -4.81)"/><path class="bcd40831-b3aa-42ea-b511-25df9cf03196" d="M934.89,253.87s29.3,19.5,33.71,32.32S980,315.12,980,315.12,956,298,953,292s-1.21,27.77,11,35-29.11-25.13-29.11-25.13S926.25,272,927.62,267,941,273,941,273,931.79,257.74,934.89,253.87Z" transform="translate(-380 -4.81)"/><path class="bcd40831-b3aa-42ea-b511-25df9cf03196" d="M463.06,298.26s30.6,31.28,25.27,54-19.14,60.27-19.14,60.27,19.23,26.42,24,29.94S481.69,407,481.69,407l18.95-44.66s-5-83.34-12.31-89.34S463.06,298.26,463.06,298.26Z" transform="translate(-380 -4.81)"/><path class="bcd40831-b3aa-42ea-b511-25df9cf03196" d="M517.14,510.52S564,564,579,568c0,0-26.12-39.78-31.06-52.88s-30.85-57.7-34.9-51.9,15.39,34.43,15.39,34.43L503,484.54Z" transform="translate(-380 -4.81)"/><path class="bcd40831-b3aa-42ea-b511-25df9cf03196" d="M554,229.94s-27,12.87-56,1.46L469,223s31.06.23,57-6.89S554,229.94,554,229.94Z" transform="translate(-380 -4.81)"/><path class="bcd40831-b3aa-42ea-b511-25df9cf03196" d="M451.83,256S428,263.74,429,277.87v20.39l-7.31-20.39S415.66,239,451.83,256Z" transform="translate(-380 -4.81)"/></g><path class="e860e465-2ddf-438f-875d-253c2fba44bf" d="M421.32,190s34.39-51.28,60.53-56.14c0,0,30.21-17.81,44.18-8.83,0,0-18.68,1.69-26.85,8.83s-37.05,39.33-36.12,44.23-18.38,27.7-18.38,27.7l3.06-27.7S426.65,201,421.32,190Z" transform="translate(-380 -4.81)"/><path class="e860e465-2ddf-438f-875d-253c2fba44bf" d="M804.17,197.35s54.13-7.16,57-19.26c0,0-2.75,18.31-19.45,22.11S808.34,202.7,804.17,197.35Z" transform="translate(-380 -4.81)"/><path class="e860e465-2ddf-438f-875d-253c2fba44bf" d="M513,550.49s5.21,56.23,33.08,62.87,60.54,0,60.54,0S557,609.15,541,575.57,510,521,510,521l16,36.18Z" transform="translate(-380 -4.81)"/><path class="e860e465-2ddf-438f-875d-253c2fba44bf" d="M925.31,467.81s10.19-24.74,18.94-17.27,15.15,34,15.15,34l-17-16.73s-9.41,9.49-14.89,8.84S925.31,467.81,925.31,467.81Z" transform="translate(-380 -4.81)"/><path class="e860e465-2ddf-438f-875d-253c2fba44bf" d="M669.34,75.51S682.41,56,697.71,59l26.12-.31S704,67.77,708.5,79.89c0,0-20.64-15.3-22.57-10.59S669.34,75.51,669.34,75.51Z" transform="translate(-380 -4.81)"/><path class="e860e465-2ddf-438f-875d-253c2fba44bf" d="M733.5,108.5s27.5-5.63,40,4.44,16.88,20.92,16.88,20.92S768.3,121,755.15,122.5s-41.27-15.57-41.27-15.57Z" transform="translate(-380 -4.81)"/><path class="e860e465-2ddf-438f-875d-253c2fba44bf" d="M558.35,79.89s.63,26,8.14,27l17.08,21.46S565.69,80.77,558.35,79.89Z" transform="translate(-380 -4.81)"/><path class="e860e465-2ddf-438f-875d-253c2fba44bf" d="M517.14,497.63s30.55,45.35,41.21,52.86l-20.65-40S523.28,495.26,517.14,497.63Z" transform="translate(-380 -4.81)"/><path class="e860e465-2ddf-438f-875d-253c2fba44bf" d="M677.75,117s44.67,1.7,53.46,16.84,36.19,14.42,36.19,14.42l-31-23.25s-28.11-22.76-36.77-20.89S677.75,117,677.75,117Z" transform="translate(-380 -4.81)"/><path class="e860e465-2ddf-438f-875d-253c2fba44bf" d="M808.31,72.6S819,69.19,824,72.6,828.61,79.19,808.31,72.6Z" transform="translate(-380 -4.81)"/><path class="e860e465-2ddf-438f-875d-253c2fba44bf" d="M1012,323.1s10,12.69,9,22.8-4.46,23.8-4.46,23.8S1007,333.2,1012,323.1Z" transform="translate(-380 -4.81)"/><path class="bcd40831-b3aa-42ea-b511-25df9cf03196" d="M584,657l-34.18,66.23L550,688S562,649,584,657Z" transform="translate(-380 -4.81)"/><path class="bcd40831-b3aa-42ea-b511-25df9cf03196" d="M590.91,352.26s-3.09-10.46,0-12.86l2.63,9.6,4.17-11.77V349l16.41-25.26-6,15.66L636,309s-7.29,16-8.66,17.5-28.48,30.74-28.48,30.74Z" transform="translate(-380 -4.81)"/><path class="bcd40831-b3aa-42ea-b511-25df9cf03196" d="M642.28,312.12s6.57-10.42,8.15-11.27L648.75,307l6.32-6.12-1.85,5.64,3.62-3.41,4.16-3.92-20.16,16Z" transform="translate(-380 -4.81)"/><path class="bcd40831-b3aa-42ea-b511-25df9cf03196" d="M549,391s-8.81-7-10.9-5l2.89,2.32-6.58,1.4-6,1.28h10.28l-19.48,5.08H526L516.14,402l7-2L509,407.54l9.57-1.92S540,387,549,391Z" transform="translate(-380 -4.81)"/><path class="bcd40831-b3aa-42ea-b511-25df9cf03196" d="M497.14,412.54S506,438,511,439.51s-4.53,17.19-4.53,17.19Z" transform="translate(-380 -4.81)"/><path class="bcd40831-b3aa-42ea-b511-25df9cf03196" d="M681,37.36S724.32,13,745.66,20s43.51,19.72,52.43,17.36S690,54.72,681,37.36Z" transform="translate(-380 -4.81)"/><path class="b7e467e9-bf8c-4d19-bed3-72f4bfc2e2ef" d="M775,56c-2,0,27.9-16.84,40-11.42s39,26,43.55,24.72c0,0-34.6-5.9-43.55-15.6S775,56,775,56Z" transform="translate(-380 -4.81)"/></g></svg>