<svg width="52" height="52" viewBox="0 0 52 52" fill="none" xmlns="http://www.w3.org/2000/svg">
<g clip-path="url(#clip0_9_515)">
<path fill-rule="evenodd" clip-rule="evenodd" d="M38.0818 12.9643H34.032C33.1363 12.9643 32.4115 13.6891 32.4115 14.5848V17.8263C32.4115 18.7204 33.1363 19.4452 34.032 19.4452H38.6871C40.9818 19.4452 42.4757 21.4039 42.0358 23.7513L41.1258 28.6046C40.7278 30.7323 38.7125 32.4114 36.614 32.4114H34.032C33.1363 32.4114 32.4115 33.1362 32.4115 34.0303V47.8064C32.4115 50.0434 30.5963 51.8561 28.3594 51.8561C28.3285 51.8585 25.6832 51.8561 24.308 51.8561C23.4139 51.8561 22.6867 51.1313 22.6867 50.2356C22.6867 49.3415 23.4139 48.6151 24.308 48.6151H27.5491C28.4448 48.6151 29.1696 47.8903 29.1696 46.9961V33.2217C29.1696 30.9831 30.9832 29.1695 33.2218 29.1695H36.1503C36.9938 29.1695 37.8571 28.4962 38.0818 27.6471L38.941 24.4108C39.1919 23.468 38.6562 22.6867 37.7406 22.6867H33.2217C30.9831 22.6867 29.1695 20.8735 29.1695 18.635V13.7746C29.1695 11.536 30.9831 9.72291 33.2217 9.72291H37.2714C38.1671 9.72291 38.8919 8.99772 38.8919 8.10197V4.86039C38.8919 3.96667 38.1671 3.24148 37.2714 3.24148H30.7909C26.3154 3.24148 22.6866 6.86834 22.6866 11.3433V18.6349C22.6866 20.8734 20.8738 22.6866 18.6368 22.6866H16.244C15.3285 22.6866 14.5847 23.468 14.5847 24.4107V27.647C14.5847 28.4961 15.2684 29.1694 16.111 29.1694H18.6368C20.8738 29.1694 22.6866 30.983 22.6866 33.2216V37.2712C22.6866 38.167 21.9618 38.8926 21.0677 38.8926C20.1719 38.8926 19.4471 38.167 19.4471 37.2712V34.0302C19.4471 33.1361 18.7207 32.4113 17.8266 32.4113H15.1426C13.0441 32.4113 11.3436 30.7322 11.3436 28.6045V23.7512C11.3436 21.4038 13.2039 19.4451 15.4986 19.4451H17.8265C18.7206 19.4451 19.447 18.7203 19.447 17.8262V10.533C19.4472 4.71525 24.1624 0 29.9799 0H38.0818C40.3203 0 42.1339 1.81318 42.1339 4.05012V8.91214C42.1339 11.1506 40.3203 12.9643 38.0818 12.9643ZM21.0678 42.1337C21.9619 42.1337 22.6867 42.8585 22.6867 43.7543C22.6867 44.6484 21.9619 45.3756 21.0678 45.3756C20.172 45.3756 19.4472 44.6484 19.4472 43.7543C19.4472 42.8585 20.172 42.1337 21.0678 42.1337Z" fill="#B8336A"/>
</g>
<defs>
<clipPath id="clip0_9_515">
<rect width="51.8571" height="51.8571" fill="white"/>
</clipPath>
</defs>
</svg>
