<svg width="53" height="52" viewBox="0 0 53 52" fill="none" xmlns="http://www.w3.org/2000/svg">
<g clip-path="url(#clip0_9_517)">
<path fill-rule="evenodd" clip-rule="evenodd" d="M18.2431 32.4156C19.1361 32.4156 19.858 33.1391 19.858 34.0304C19.858 34.9217 19.1352 35.6445 18.2431 35.6445C17.3518 35.6445 16.6291 34.9217 16.6291 34.0304C16.6291 33.1391 17.3527 32.4156 18.2431 32.4156ZM13.5104 27.7914C12.4886 20.7023 17.4078 14.1286 24.4968 13.1069C31.5858 12.0851 38.1603 17.0043 39.1821 24.0933C40.2038 31.1823 35.2847 37.7569 28.1957 38.7786C28.1163 38.7908 28.0401 38.7908 27.9615 38.7997L28.2013 38.7665C27.3149 38.8937 26.4949 38.2787 26.3661 37.3931C26.2389 36.5074 26.8539 35.685 27.7395 35.5562L27.737 35.5505C27.7395 35.5505 27.7411 35.5505 27.7435 35.5505C33.0589 34.7848 36.7448 29.8559 35.9791 24.5406C35.2134 19.2244 30.2853 15.5385 24.9692 16.3042C19.6562 17.0699 15.9671 21.9988 16.7336 27.3141C16.7336 27.3166 16.7336 27.3182 16.7352 27.3182L16.7296 27.3206C16.8568 28.2062 16.2418 29.027 15.3562 29.1551C14.4705 29.2823 13.6481 28.6681 13.5193 27.7825L13.5549 28.0239C13.5436 27.9445 13.5217 27.87 13.5104 27.7914ZM39.3125 10.5375C39.3125 9.19411 40.4032 8.10349 41.7482 8.10349C43.0787 8.10349 44.1571 9.17142 44.1782 10.5003V10.5764C44.1571 11.9053 43.0787 12.9732 41.7482 12.9732C40.4032 12.9732 39.3125 11.8826 39.3125 10.5375ZM47.9597 47.4169C45.1416 50.2642 41.2312 51.8571 34.4696 51.8571H18.2431C11.4815 51.8571 7.57191 50.2642 4.75542 47.4169C1.97458 44.6085 0.428589 40.6884 0.428589 34.0426V17.8162C0.428589 11.1679 1.97458 7.25028 4.75542 4.44189C7.57191 1.5938 11.4815 0 18.2431 0H34.4688C41.2312 0 45.1408 1.5938 47.9589 4.44189C48.1396 4.62258 48.3049 4.82109 48.4718 5.01718C48.8137 5.31374 49.0349 5.74804 49.0349 6.23663C49.0349 7.13198 48.3097 7.85717 47.4144 7.85717C46.925 7.85717 46.4907 7.63515 46.1941 7.2916L46.1731 7.30862C46.0062 7.1101 45.8498 6.90429 45.665 6.71874C43.2002 4.22636 39.5613 3.24836 33.6431 3.24836H19.0623C13.1457 3.24836 9.51412 4.22636 7.04929 6.71874C4.61605 9.17628 3.66966 12.8249 3.66966 18.6402V33.2226C3.66966 39.0403 4.61605 42.6792 7.04929 45.136C9.51412 47.6275 13.1457 48.6161 19.0623 48.6161H33.6447C39.5629 48.6161 43.2018 47.6275 45.6667 45.136C48.0999 42.6792 49.0366 39.0403 49.0366 33.2226V18.641C49.0366 17.2247 48.9782 15.9404 48.8599 14.7679L48.8672 14.7663C48.7797 13.8726 49.4271 13.0737 50.3225 12.9789C51.2194 12.8865 52.024 13.538 52.1156 14.4333C52.118 14.4568 52.1156 14.4787 52.1156 14.5022H52.1196C52.2177 15.5345 52.2857 16.6162 52.2857 17.8162V34.0418C52.2857 40.6884 50.7381 44.6085 47.9597 47.4169Z" fill="#B8336A"/>
</g>
<defs>
<clipPath id="clip0_9_517">
<rect width="51.8571" height="51.8571" fill="white" transform="translate(0.428589)"/>
</clipPath>
</defs>
</svg>
