<svg width="105" height="61" viewBox="0 0 105 61" fill="none" xmlns="http://www.w3.org/2000/svg">
<circle cx="56.5" cy="30.5" r="30.5" fill="#EFAAC4"/>
<circle cx="18.5" cy="30.5" r="18.5" fill="#FFC4D1"/>
<circle cx="86.5" cy="30.5" r="18.5" fill="#FFE8E1"/>
<path d="M32.064 33.192C32.48 33.192 32.824 33.328 33.096 33.6C33.384 33.856 33.528 34.192 33.528 34.608C33.528 35.008 33.384 35.344 33.096 35.616C32.824 35.872 32.48 36 32.064 36H24.264C23.848 36 23.496 35.864 23.208 35.592C22.936 35.304 22.8 34.952 22.8 34.536V20.664C22.8 20.248 22.944 19.904 23.232 19.632C23.52 19.344 23.888 19.2 24.336 19.2C24.72 19.2 25.056 19.344 25.344 19.632C25.648 19.904 25.8 20.248 25.8 20.664V33.6L25.272 33.192H32.064ZM48.4926 29.592C48.4926 30.904 48.1966 32.064 47.6046 33.072C47.0286 34.064 46.2446 34.84 45.2526 35.4C44.2766 35.96 43.1806 36.24 41.9646 36.24C40.7486 36.24 39.6446 35.96 38.6526 35.4C37.6766 34.84 36.8926 34.064 36.3006 33.072C35.7246 32.064 35.4366 30.904 35.4366 29.592C35.4366 28.28 35.7246 27.128 36.3006 26.136C36.8926 25.128 37.6766 24.344 38.6526 23.784C39.6446 23.208 40.7486 22.92 41.9646 22.92C43.1806 22.92 44.2766 23.208 45.2526 23.784C46.2446 24.344 47.0286 25.128 47.6046 26.136C48.1966 27.128 48.4926 28.28 48.4926 29.592ZM45.6126 29.592C45.6126 28.776 45.4446 28.072 45.1086 27.48C44.7886 26.872 44.3486 26.4 43.7886 26.064C43.2446 25.728 42.6366 25.56 41.9646 25.56C41.2926 25.56 40.6766 25.728 40.1166 26.064C39.5726 26.4 39.1326 26.872 38.7966 27.48C38.4766 28.072 38.3166 28.776 38.3166 29.592C38.3166 30.392 38.4766 31.096 38.7966 31.704C39.1326 32.296 39.5726 32.76 40.1166 33.096C40.6766 33.432 41.2926 33.6 41.9646 33.6C42.6366 33.6 43.2446 33.432 43.7886 33.096C44.3486 32.76 44.7886 32.296 45.1086 31.704C45.4446 31.096 45.6126 30.392 45.6126 29.592ZM56.3411 22.92C57.0131 22.92 57.6291 23.024 58.1891 23.232C58.7491 23.44 59.2291 23.704 59.6291 24.024C60.0451 24.344 60.3651 24.672 60.5891 25.008C60.8291 25.328 60.9491 25.6 60.9491 25.824L60.3251 26.136V24.384C60.3251 23.968 60.4611 23.624 60.7331 23.352C61.0051 23.064 61.3491 22.92 61.7651 22.92C62.1811 22.92 62.5251 23.056 62.7971 23.328C63.0691 23.6 63.2051 23.952 63.2051 24.384V35.064C63.2051 36.456 62.9011 37.568 62.2931 38.4C61.7011 39.248 60.9171 39.856 59.9411 40.224C58.9651 40.608 57.9171 40.8 56.7971 40.8C56.4771 40.8 56.0611 40.76 55.5491 40.68C55.0371 40.6 54.5491 40.504 54.0851 40.392C53.6211 40.28 53.2691 40.176 53.0291 40.08C52.5491 39.872 52.2131 39.608 52.0211 39.288C51.8451 38.984 51.8131 38.656 51.9251 38.304C52.0691 37.84 52.3011 37.52 52.6211 37.344C52.9411 37.184 53.2771 37.168 53.6291 37.296C53.7891 37.344 54.0531 37.44 54.4211 37.584C54.7891 37.728 55.1891 37.856 55.6211 37.968C56.0691 38.096 56.4611 38.16 56.7971 38.16C57.9971 38.16 58.8851 37.92 59.4611 37.44C60.0371 36.96 60.3251 36.296 60.3251 35.448V33.36L60.6131 33.576C60.6131 33.784 60.5011 34.04 60.2771 34.344C60.0691 34.632 59.7731 34.92 59.3891 35.208C59.0211 35.496 58.5811 35.744 58.0691 35.952C57.5571 36.144 57.0131 36.24 56.4371 36.24C55.3011 36.24 54.2771 35.96 53.3651 35.4C52.4531 34.824 51.7331 34.04 51.2051 33.048C50.6771 32.04 50.4131 30.888 50.4131 29.592C50.4131 28.28 50.6771 27.128 51.2051 26.136C51.7331 25.128 52.4451 24.344 53.3411 23.784C54.2371 23.208 55.2371 22.92 56.3411 22.92ZM56.7971 25.56C56.0771 25.56 55.4451 25.736 54.9011 26.088C54.3571 26.44 53.9331 26.92 53.6291 27.528C53.3251 28.136 53.1731 28.824 53.1731 29.592C53.1731 30.344 53.3251 31.024 53.6291 31.632C53.9331 32.24 54.3571 32.72 54.9011 33.072C55.4451 33.424 56.0771 33.6 56.7971 33.6C57.5331 33.6 58.1731 33.424 58.7171 33.072C59.2611 32.72 59.6851 32.24 59.9891 31.632C60.2931 31.024 60.4451 30.344 60.4451 29.592C60.4451 28.824 60.2931 28.136 59.9891 27.528C59.6851 26.92 59.2611 26.44 58.7171 26.088C58.1731 25.736 57.5331 25.56 56.7971 25.56ZM78.3051 29.592C78.3051 30.904 78.0091 32.064 77.4171 33.072C76.8411 34.064 76.0571 34.84 75.0651 35.4C74.0891 35.96 72.9931 36.24 71.7771 36.24C70.5611 36.24 69.4571 35.96 68.4651 35.4C67.4891 34.84 66.7051 34.064 66.1131 33.072C65.5371 32.064 65.2491 30.904 65.2491 29.592C65.2491 28.28 65.5371 27.128 66.1131 26.136C66.7051 25.128 67.4891 24.344 68.4651 23.784C69.4571 23.208 70.5611 22.92 71.7771 22.92C72.9931 22.92 74.0891 23.208 75.0651 23.784C76.0571 24.344 76.8411 25.128 77.4171 26.136C78.0091 27.128 78.3051 28.28 78.3051 29.592ZM75.4251 29.592C75.4251 28.776 75.2571 28.072 74.9211 27.48C74.6011 26.872 74.1611 26.4 73.6011 26.064C73.0571 25.728 72.4491 25.56 71.7771 25.56C71.1051 25.56 70.4891 25.728 69.9291 26.064C69.3851 26.4 68.9451 26.872 68.6091 27.48C68.2891 28.072 68.1291 28.776 68.1291 29.592C68.1291 30.392 68.2891 31.096 68.6091 31.704C68.9451 32.296 69.3851 32.76 69.9291 33.096C70.4891 33.432 71.1051 33.6 71.7771 33.6C72.4491 33.6 73.0571 33.432 73.6011 33.096C74.1611 32.76 74.6011 32.296 74.9211 31.704C75.2571 31.096 75.4251 30.392 75.4251 29.592Z" fill="#A42252"/>
</svg>
