<svg width="53" height="52" viewBox="0 0 53 52" fill="none" xmlns="http://www.w3.org/2000/svg">
<g clip-path="url(#clip0_9_513)">
<path fill-rule="evenodd" clip-rule="evenodd" d="M52.7143 11.068C52.7143 11.7801 52.4912 12.438 52.1089 12.9758C51.0898 14.5002 49.7058 15.6068 48.3242 16.766C48.041 17.0402 47.8614 17.4129 47.8376 17.8326C47.6833 24.837 45.0886 32.8475 40.4662 38.1412C34.9375 44.4704 27.4006 48.7639 18.6823 48.7639C17.7886 48.7639 17.0618 48.0375 17.0618 47.1433C17.0618 46.2476 17.7886 45.5228 18.6823 45.5228C34.7413 45.5228 43.4911 31.4849 44.5103 19.5006C44.5578 19.3333 44.5871 19.1173 44.5871 18.8103C44.5871 18.7082 44.5887 18.6065 44.5942 18.5069C44.6741 17.1095 45.2992 15.8577 46.2583 14.96C46.3058 14.9145 46.3421 14.873 46.377 14.8311C47.5473 13.679 48.6266 12.3326 49.4622 11.0682C48.2752 11.6007 47.0235 12.0038 45.7226 12.2765C45.505 12.2765 45.3214 12.093 45.3214 11.8714C45.3214 11.7606 45.3665 11.6589 45.4393 11.5862C45.4424 11.5826 45.4282 11.5878 45.4266 11.5878C46.7037 10.4724 47.6833 9.01497 48.2103 7.3525C47.3525 7.86489 46.4474 8.30639 45.5081 8.67911C44.9012 8.92088 44.242 9.06055 43.5473 9.06055C42.4664 9.06055 41.4616 8.73533 40.626 8.17746C40.5936 8.15568 40.5604 8.1411 40.5279 8.12124C39.1431 7.19106 37.5281 6.63126 35.6987 6.63126L35.5079 6.6657C31.4827 6.6657 28.4237 8.93506 27.2803 12.4092C27.2482 12.4241 26.9206 13.8683 26.8878 14.0756C26.5844 16.0122 24.9092 17.4931 22.8867 17.4931C22.6671 17.4931 22.4507 17.4749 22.2398 17.4385C16.9253 16.4447 12.127 14.1464 8.54557 10.4088C8.52379 10.3906 8.50718 10.3851 8.47629 10.3542C8.00228 9.87983 7.23354 9.87983 6.75761 10.3542C6.64681 10.467 6.56132 10.594 6.50126 10.732C6.48698 10.7669 6.47797 10.7669 6.46683 10.774C6.03435 11.7733 5.71824 12.8542 5.71824 13.9229C5.71824 16.1341 6.61754 18.1526 7.96947 19.7569C7.96947 19.7589 7.95326 19.7498 7.96035 19.7569C8.07865 19.8985 8.14945 20.0805 8.14945 20.2783C8.14945 20.7254 7.78584 21.0886 7.33877 21.0886C7.24975 21.0886 7.16629 21.0653 7.08638 21.0379C7.07372 21.0324 7.06106 21.0269 7.0484 21.0217C7.03371 21.0269 7.0175 21.0344 6.99178 21.0217C6.883 20.9671 6.76116 20.9362 6.6306 20.9362C6.19063 20.9362 5.83461 21.2924 5.82347 21.7283C6.24522 24.6117 8.01494 27.1648 10.4042 28.6619C10.3733 28.6588 10.3552 28.6588 10.3662 28.6651C10.5858 28.8091 10.733 29.0599 10.733 29.3432C10.733 29.7902 10.3698 30.1534 9.92272 30.1534C9.9136 30.1534 9.90449 30.1518 9.89537 30.1518C9.88474 30.1495 9.87562 30.1462 9.86448 30.1447C9.83562 30.1408 9.80827 30.1352 9.779 30.1321C9.56104 30.1431 9.39007 30.3156 9.39007 30.5333C9.39007 30.5974 9.40313 30.6567 9.43008 30.7097C10.0896 32.3524 11.2053 33.7561 12.6099 34.7832C12.6265 34.7959 12.63 34.8069 12.6499 34.8212C12.7698 34.9067 12.8825 35.0047 12.9917 35.1124C14.0979 36.2186 14.0979 38.014 12.9917 39.1226C12.6519 39.4597 12.2483 39.6963 11.8214 39.8268C11.8178 39.8284 11.8198 39.8268 11.8158 39.8284C10.1553 40.3554 8.39628 40.6609 6.52851 40.6609C6.21595 40.6609 5.86743 40.6609 5.51648 40.6609C5.29295 40.6609 5.11135 40.8429 5.11135 41.066C5.11135 41.1974 5.17668 41.3066 5.27117 41.3794C5.93823 41.775 6.62149 42.162 7.33169 42.522L7.33006 42.5236C7.80762 42.7909 8.13679 43.2957 8.13679 43.8844C8.13679 44.7477 7.43732 45.4472 6.57398 45.4472C6.22152 45.4472 5.89822 45.3254 5.6363 45.1291C4.50081 44.5349 3.39976 43.8987 2.3533 43.2213C1.07814 42.3967 0.536475 40.792 1.04887 39.3526C1.51416 38.0367 2.74061 37.4195 4.09801 37.4195C4.70095 37.4923 5.91118 37.4195 6.52881 37.4195C7.77348 37.4195 8.793 37.1632 9.97204 36.8783C8.20232 35.3772 6.8358 33.3784 6.09633 31.0474C5.9128 30.4673 5.89457 29.8589 6.031 29.2852C3.9397 27.0032 2.47707 23.685 2.47707 20.4055C2.49327 19.5932 3.01113 18.9155 3.54014 18.3359C3.02774 16.9421 2.47707 15.4561 2.47707 13.9226C2.47707 11.6804 3.34385 9.46922 4.45756 7.54129C4.99528 6.61111 6.27631 5.90415 7.33898 5.82069C8.3111 5.82069 9.16522 6.35476 9.78477 7.12158C12.8411 10.9047 17.6247 12.9379 22.3309 14.1006C22.4108 14.1149 22.4963 14.1259 22.5817 14.1259C23.354 14.1259 23.9934 13.5898 24.1607 12.8666C25.4505 7.41945 29.6787 3.38391 35.508 3.38391C37.9737 3.38391 40.3775 4.12733 42.4102 5.47369C42.7267 5.67353 43.0955 5.79537 43.4967 5.79537C43.6747 5.79537 43.8456 5.7661 44.007 5.72255C44.8854 5.3954 45.7407 5.01559 46.551 4.52892C47.0653 4.22153 47.6374 4.19813 48.2079 4.19813C48.9279 4.19813 49.6456 4.31248 50.2344 4.78486C51.2899 5.63352 51.7164 7.0527 51.3041 8.34994C51.3041 8.35349 51.3025 8.35703 51.3025 8.36058C52.1549 8.95288 52.7143 9.94516 52.7143 11.068ZM4.09801 37.4195C3.97059 37.4052 4.22492 37.4195 4.09801 37.4195V37.4195ZM7.33908 5.82069C7.25552 5.82069 7.42294 5.81309 7.33908 5.82069V5.82069ZM13.0117 44.7125C13.9058 44.7125 14.6326 45.4373 14.6326 46.3331C14.6326 47.2272 13.9058 47.9536 13.0117 47.9536C12.1159 47.9536 11.3911 47.2272 11.3911 46.3331C11.3911 45.4373 12.116 44.7125 13.0117 44.7125Z" fill="#B8336A"/>
</g>
<defs>
<clipPath id="clip0_9_513">
<rect width="51.8571" height="51.8571" fill="white" transform="translate(0.857178 0.142853)"/>
</clipPath>
</defs>
</svg>
